<svg width="21" height="21" fill="none" xmlns="http://www.w3.org/2000/svg"><g clip-path="url(#clip0)" fill="#E94E6B"><path d="M14.464.978H6.96A6.255 6.255 0 00.704 7.232v7.506c0 3.454 2.8 6.255 6.255 6.255h7.505c3.454 0 6.255-2.801 6.255-6.255V7.232c0-3.453-2.8-6.254-6.255-6.254zm4.379 13.76a4.383 4.383 0 01-4.379 4.378H6.96a4.383 4.383 0 01-4.379-4.378V7.232A4.383 4.383 0 016.96 2.854h7.505a4.383 4.383 0 014.379 4.378v7.506z"/><path d="M10.712 5.981a5.004 5.004 0 100 10.008 5.004 5.004 0 000-10.008zm0 8.132a3.132 3.132 0 01-3.128-3.128 3.13 3.13 0 013.128-3.127 3.13 3.13 0 013.127 3.127 3.132 3.132 0 01-3.127 3.128zM16.09 6.273a.667.667 0 100-1.334.667.667 0 000 1.334z"/></g><defs><clipPath id="clip0"><path fill="#fff" d="M.704.978h20.015v20.015H.704z"/></clipPath></defs></svg>