<svg width="23" height="23" fill="none" xmlns="http://www.w3.org/2000/svg"><g clip-path="url(#clip0)" fill="#E94E6B"><path d="M11.57.977c-4.268 0-7.74 3.472-7.74 7.74 0 1.442.399 2.85 1.155 4.07l6.144 9.901c.118.19.325.305.548.305h.005a.645.645 0 00.548-.313l5.988-9.997a7.731 7.731 0 001.092-3.966c0-4.268-3.472-7.74-7.74-7.74zM17.11 12.02l-5.444 9.09-5.586-9.002a6.442 6.442 0 01-.97-3.39c0-3.557 2.902-6.46 6.459-6.46 3.556 0 6.454 2.903 6.454 6.46a6.444 6.444 0 01-.913 3.302z"/><path d="M11.57 4.847a3.874 3.874 0 00-3.87 3.87c0 2.12 1.708 3.87 3.87 3.87a3.863 3.863 0 003.87-3.87 3.874 3.874 0 00-3.87-3.87zm0 6.459A2.59 2.59 0 018.98 8.717a2.598 2.598 0 012.589-2.589 2.594 2.594 0 012.584 2.59 2.586 2.586 0 01-2.584 2.588z"/></g><defs><clipPath id="clip0"><path fill="#fff" d="M.562.977h22.016v22.016H.562z"/></clipPath></defs></svg>