<svg width="51" height="41" fill="none" xmlns="http://www.w3.org/2000/svg"><path fill-rule="evenodd" clip-rule="evenodd" d="M25.573.073c0 .046-.487.072-1.315.072s-1.315.027-1.315.073c0 .043-.244.073-.585.073-.34 0-.584.03-.584.073 0 .041-.22.072-.512.072-.292 0-.511.032-.511.073 0 .04-.132.073-.293.073-.16 0-.292.033-.292.073 0 .04-.131.072-.292.072-.16 0-.292.033-.292.073 0 .04-.132.073-.293.073-.16 0-.292.033-.292.073 0 .04-.131.072-.292.072-.16 0-.292.033-.292.073 0 .04-.099.073-.22.073-.12 0-.219.033-.219.073 0 .04-.098.072-.219.072-.12 0-.22.033-.22.073 0 .04-.13.073-.291.073-.161 0-.293.032-.293.072 0 .04-.066.073-.146.073-.08 0-.146.033-.146.073 0 .04-.066.073-.146.073-.08 0-.146.032-.146.072 0 .04-.132.073-.293.073-.16 0-.292.033-.292.073 0 .04-.066.073-.146.073-.08 0-.146.032-.146.072 0 .04-.066.073-.146.073-.08 0-.146.033-.146.073 0 .04-.066.073-.146.073-.08 0-.147.032-.147.072 0 .04-.065.073-.146.073-.08 0-.146.033-.146.073 0 .04-.066.073-.146.073-.08 0-.146.032-.146.072 0 .04-.066.073-.146.073-.08 0-.146.033-.146.073 0 .04-.066.072-.146.072-.08 0-.147.033-.147.073 0 .04-.065.073-.146.073-.08 0-.146.033-.146.073 0 .04-.066.072-.146.072-.08 0-.146.033-.146.073 0 .04-.066.073-.146.073-.08 0-.146.033-.146.073 0 .04-.059.072-.13.072-.072 0-.178.066-.236.146-.058.08-.163.145-.235.145-.072 0-.13.033-.13.073 0 .04-.059.073-.13.073-.072 0-.177.065-.235.145-.058.08-.157.146-.22.146-.062 0-.16.065-.219.145-.058.08-.15.146-.206.146-.055 0-.193.098-.305.218-.113.12-.244.218-.293.218-.048 0-.18.098-.292.218-.112.12-.243.219-.29.219-.048 0-.213.13-.367.29-.155.16-.317.291-.36.291-.104 0-3.22 3.103-3.22 3.206 0 .044-.132.205-.293.359-.16.153-.292.318-.292.365 0 .047-.099.177-.22.29-.12.111-.219.248-.219.303 0 .055-.065.148-.146.205-.08.058-.146.15-.146.206 0 .055-.098.191-.219.304-.12.112-.22.256-.22.32s-.032.116-.072.116c-.04 0-.073.058-.073.13 0 .07-.066.176-.146.234-.08.057-.147.156-.147.218s-.065.16-.146.218c-.08.058-.146.163-.146.234 0 .071-.033.13-.073.13-.04 0-.073.065-.073.145 0 .08-.033.146-.073.146-.04 0-.073.065-.073.145 0 .08-.033.146-.073.146-.04 0-.073.065-.073.145 0 .08-.033.146-.073.146-.04 0-.073.065-.073.145 0 .08-.033.146-.073.146-.04 0-.074.065-.074.145 0 .08-.032.146-.073.146-.04 0-.073.065-.073.145 0 .08-.033.146-.073.146-.04 0-.073.065-.073.145 0 .08-.033.145-.073.145-.04 0-.073.066-.073.146 0 .08-.033.145-.073.145-.04 0-.073.066-.073.146 0 .08-.033.145-.073.145-.04 0-.073.098-.073.219 0 .12-.033.218-.073.218-.04 0-.073.065-.073.145 0 .08-.033.146-.073.146-.04 0-.073.098-.073.218s-.033.218-.073.218c-.04 0-.074.066-.074.146 0 .08-.032.145-.073.145-.04 0-.073.098-.073.218s-.033.218-.073.218c-.04 0-.073.131-.073.291 0 .16-.033.291-.073.291-.04 0-.073.099-.073.219s-.033.218-.073.218c-.04 0-.073.098-.073.218s-.033.218-.073.218c-.04 0-.073.131-.073.291 0 .16-.033.291-.073.291-.04 0-.073.131-.073.291 0 .16-.033.291-.073.291-.04 0-.073.164-.073.364 0 .2-.033.363-.074.363-.04 0-.073.194-.073.437 0 .242-.032.436-.073.436-.042 0-.073.243-.073.582 0 .34-.03.582-.073.582-.044 0-.073.34-.073.873 0 .533-.028.873-.073.873S0 24.78 0 25.313c0 .533.028.873.073.873s.073.387.073 1.018c0 .63.028 1.018.073 1.018.043 0 .073.243.073.582 0 .34.03.582.073.582.04 0 .073.164.073.364 0 .2.033.363.073.363.04 0 .074.164.074.364 0 .2.032.364.073.364.04 0 .073.163.073.363 0 .2.033.364.073.364.04 0 .073.098.073.218s.033.218.073.218c.04 0 .073.131.073.291 0 .16.033.291.073.291.04 0 .073.099.073.219s.033.218.073.218c.04 0 .073.13.073.29 0 .16.033.292.073.292.04 0 .073.065.073.145 0 .08.033.146.073.146.04 0 .073.098.073.218s.033.218.074.218c.04 0 .073.098.073.218s.032.219.073.219c.04 0 .073.065.073.145 0 .08.033.145.073.145.04 0 .073.099.073.219s.033.218.073.218c.04 0 .073.065.073.145 0 .08.033.146.073.146.04 0 .073.065.073.145 0 .08.033.146.073.146.04 0 .073.065.073.145 0 .08.033.146.073.146.04 0 .073.065.073.145 0 .08.033.146.073.146.04 0 .074.065.074.145 0 .08.032.146.073.146.04 0 .073.065.073.145 0 .08.033.146.073.146.04 0 .073.065.073.145 0 .08.033.145.073.145.04 0 .073.066.073.146 0 .08.033.146.073.146.04 0 .073.058.073.129 0 .071.066.176.146.234.08.058.146.163.146.235 0 .07.033.129.073.129.04 0 .073.058.073.13 0 .07.066.176.147.233.08.058.146.156.146.219 0 .062.065.16.146.218.08.058.146.156.146.218 0 .063.066.16.146.218.08.058.146.156.146.219 0 .062.066.16.146.218.08.058.146.148.146.2 0 .12.506.63.565.571.024-.023-.028-.104-.114-.18-.087-.074-.158-.176-.158-.225 0-.05-.099-.181-.22-.293-.12-.112-.219-.25-.219-.304 0-.056-.065-.148-.146-.206-.08-.057-.146-.163-.146-.234 0-.071-.033-.13-.073-.13-.04 0-.073-.065-.073-.145 0-.08-.033-.145-.073-.145-.04 0-.073-.059-.073-.13 0-.07-.066-.176-.146-.234-.08-.058-.146-.163-.146-.234 0-.071-.033-.13-.074-.13-.04 0-.073-.065-.073-.145 0-.08-.032-.146-.073-.146-.04 0-.073-.065-.073-.145 0-.08-.033-.145-.073-.145-.04 0-.073-.066-.073-.146 0-.08-.033-.145-.073-.145-.04 0-.073-.066-.073-.146 0-.08-.033-.145-.073-.145-.04 0-.073-.066-.073-.146 0-.08-.033-.145-.073-.145-.04 0-.073-.099-.073-.219s-.033-.218-.073-.218c-.04 0-.073-.065-.073-.145 0-.08-.033-.146-.073-.146-.04 0-.074-.065-.074-.145 0-.08-.032-.146-.073-.146-.04 0-.073-.098-.073-.218s-.033-.218-.073-.218c-.04 0-.073-.098-.073-.218s-.033-.218-.073-.218c-.04 0-.073-.099-.073-.219s-.033-.218-.073-.218c-.04 0-.073-.065-.073-.145 0-.08-.033-.146-.073-.146-.04 0-.073-.098-.073-.218s-.033-.218-.073-.218c-.04 0-.073-.131-.073-.291 0-.16-.033-.291-.073-.291-.04 0-.073-.131-.073-.291 0-.16-.033-.291-.073-.291-.04 0-.074-.164-.074-.364 0-.2-.032-.364-.073-.364-.04 0-.073-.13-.073-.29 0-.16-.033-.291-.073-.291-.04 0-.073-.164-.073-.364 0-.2-.033-.364-.073-.364-.042 0-.073-.242-.073-.582 0-.34-.03-.582-.073-.582-.044 0-.073-.315-.073-.8 0-.485-.029-.8-.073-.8-.046 0-.073-.509-.073-1.382 0-.873.027-1.382.073-1.382.044 0 .073-.315.073-.8 0-.485.029-.8.073-.8.042 0 .073-.218.073-.51 0-.29.031-.508.073-.508.04 0 .073-.164.073-.364 0-.2.033-.364.073-.364.04 0 .073-.163.073-.363 0-.2.033-.364.073-.364.04 0 .073-.131.073-.291 0-.16.033-.291.074-.291.04 0 .073-.131.073-.291 0-.16.032-.29.073-.29.04 0 .073-.132.073-.292 0-.16.033-.29.073-.29.04 0 .073-.099.073-.219s.033-.218.073-.218c.04 0 .073-.066.073-.146 0-.08.033-.145.073-.145.04 0 .073-.098.073-.218s.033-.219.073-.219c.04 0 .073-.098.073-.218s.033-.218.073-.218c.04 0 .073-.098.073-.218s.033-.219.073-.219c.04 0 .074-.065.074-.145 0-.08.032-.145.073-.145.04 0 .073-.066.073-.146 0-.08.033-.145.073-.145.04 0 .073-.066.073-.146 0-.08.033-.145.073-.145.04 0 .073-.099.073-.218 0-.12.033-.219.073-.219.04 0 .073-.065.073-.145 0-.08.033-.146.073-.146.04 0 .073-.058.073-.13 0-.07.066-.176.146-.233a.4.4 0 00.146-.291.4.4 0 01.147-.291c.08-.058.146-.163.146-.235 0-.07.033-.129.073-.129.04 0 .073-.065.073-.145 0-.08.033-.146.073-.146.04 0 .073-.058.073-.13 0-.07.066-.176.146-.234.08-.057.146-.155.146-.218 0-.062.066-.16.146-.218.08-.058.146-.163.146-.234 0-.072.033-.13.074-.13.04 0 .073-.052.073-.116s.098-.208.219-.32c.12-.112.219-.243.219-.291 0-.048.099-.179.22-.291.12-.112.218-.249.218-.304 0-.055.066-.148.147-.205.08-.058.146-.149.146-.202 0-.053.197-.29.438-.526.241-.235.438-.463.438-.505 0-.102 2.241-2.331 2.344-2.331.043 0 .205-.131.36-.291.154-.16.319-.291.365-.291.047 0 .211-.131.366-.291.154-.16.32-.291.366-.291.048 0 .179-.098.291-.218.113-.12.257-.219.322-.219.064 0 .117-.032.117-.072 0-.04.052-.073.116-.073.065 0 .21-.098.322-.218.113-.12.257-.218.322-.218.064 0 .116-.033.116-.073 0-.04.066-.073.146-.073.08 0 .147-.033.147-.073 0-.04.058-.072.13-.072.071 0 .177-.066.235-.146.058-.08.164-.145.235-.145.072 0 .13-.033.13-.073 0-.04.059-.073.13-.073.072 0 .178-.065.236-.145.058-.08.163-.146.235-.146.071 0 .13-.033.13-.073 0-.04.066-.072.146-.072.08 0 .146-.033.146-.073 0-.04.066-.073.146-.073.08 0 .146-.032.146-.072 0-.04.066-.073.147-.073.08 0 .146-.033.146-.073 0-.04.066-.073.146-.073.08 0 .146-.032.146-.072 0-.04.099-.073.22-.073.12 0 .218-.033.218-.073 0-.04.099-.073.22-.073.12 0 .219-.032.219-.072 0-.04.066-.073.146-.073.08 0 .146-.033.146-.073 0-.04.066-.073.146-.073.08 0 .146-.032.146-.072 0-.04.099-.073.22-.073.12 0 .219-.033.219-.073 0-.04.098-.073.219-.073.12 0 .22-.032.22-.072 0-.04.098-.073.218-.073s.22-.033.22-.073c0-.04.098-.073.219-.073.12 0 .219-.032.219-.072 0-.04.099-.073.22-.073.12 0 .218-.033.218-.073 0-.04.165-.072.366-.072.2 0 .365-.033.365-.073 0-.04.131-.073.292-.073.16 0 .293-.033.293-.073 0-.04.131-.072.292-.072.16 0 .292-.033.292-.073 0-.04.195-.073.438-.073.244 0 .439-.032.439-.073 0-.041.219-.072.511-.072.293 0 .512-.032.512-.073 0-.045.365-.073.95-.073.584 0 .95-.028.95-.073s.39-.072 1.022-.072c.634 0 1.023.027 1.023.072s.366.073.95.073c.585 0 .95.028.95.073 0 .041.22.073.511.073.293 0 .512.03.512.072 0 .04.195.073.438.073.244 0 .439.032.439.073 0 .04.131.073.292.073.16 0 .292.032.292.072 0 .04.165.073.366.073.2 0 .365.033.365.073 0 .04.099.073.22.073.12 0 .218.032.218.072 0 .04.132.073.292.073.161 0 .293.033.293.073 0 .04.098.072.219.072.12 0 .22.033.22.073 0 .04.098.073.218.073s.22.033.22.073c0 .04.098.072.219.072.12 0 .219.033.219.073 0 .04.099.073.22.073.12 0 .218.033.218.073 0 .04.066.072.146.072.08 0 .147.033.147.073 0 .04.098.073.219.073.12 0 .219.033.219.073 0 .04.066.072.146.072.08 0 .146.033.146.073 0 .04.066.073.146.073.08 0 .147.033.147.073 0 .04.065.072.146.072.08 0 .146.033.146.073 0 .04.066.073.146.073.08 0 .146.032.146.073 0 .04.099.072.22.072.12 0 .218.033.218.073 0 .04.059.073.13.073.072 0 .178.065.236.145.058.08.164.146.235.146.072 0 .13.032.13.072 0 .04.066.073.146.073.08 0 .146.033.146.073 0 .04.059.073.13.073.072 0 .178.065.236.145.058.08.163.146.235.146.072 0 .13.032.13.072 0 .04.053.073.117.073s.209.098.322.218c.112.12.257.218.321.218s.117.033.117.073c0 .04.058.073.13.073.071 0 .177.065.235.145.058.08.15.146.206.146.055 0 .193.098.306.218.112.12.243.218.29.218.048 0 .213.131.367.291.155.16.318.291.364.291.045 0 .276.197.513.437s.465.436.508.436c.102 0 1.757 1.648 1.757 1.749 0 .043.197.27.438.506.242.236.439.466.439.512 0 .046.099.176.22.288.12.112.218.243.218.291 0 .048.099.179.22.29.12.113.219.25.219.305 0 .055.065.147.146.205.08.058.146.156.146.218 0 .063.066.16.146.218.08.058.146.156.146.219 0 .062.066.16.146.218.08.058.146.163.146.234 0 .071.033.13.073.13.04 0 .074.058.074.129 0 .071.065.177.146.234.08.058.146.163.146.235 0 .07.033.129.073.129.04 0 .073.066.073.146 0 .08.033.145.073.145.04 0 .073.065.073.145 0 .08.033.146.073.146.04 0 .073.058.073.13 0 .07.066.176.146.234a.397.397 0 01.147.307c0 .11.032.202.073.202.04 0 .073.065.073.145 0 .08.033.146.073.146.04 0 .073.065.073.145 0 .08.033.146.073.146.04 0 .073.065.073.145 0 .08.033.146.073.146.04 0 .073.098.073.218s.033.218.073.218c.04 0 .073.066.073.145 0 .08.033.146.073.146.04 0 .073.098.073.218s.033.218.073.218c.04 0 .073.066.073.146 0 .08.033.145.073.145.04 0 .073.099.073.219s.033.218.074.218c.04 0 .073.098.073.218s.033.218.073.218c.04 0 .073.098.073.218s.033.219.073.219c.04 0 .073.13.073.29 0 .16.033.292.073.292.04 0 .073.13.073.29 0 .16.033.291.073.291.04 0 .073.099.073.219s.033.218.073.218c.04 0 .073.194.073.436 0 .243.033.437.073.437.04 0 .074.163.074.363 0 .2.032.364.073.364.041 0 .073.218.073.51 0 .29.03.508.073.508.045 0 .073.364.073.946s.028.946.073.946.073.387.073 1.018c0 .63-.028 1.018-.073 1.018-.044 0-.073.267-.073.655s.03.654.073.654c.042 0 .073-.242.073-.581 0-.34.03-.582.073-.582.047 0 .073-.825.073-2.328s-.026-2.327-.073-2.327c-.043 0-.073-.267-.073-.655s-.03-.655-.073-.655c-.04 0-.073-.194-.073-.436 0-.243-.033-.437-.073-.437-.04 0-.073-.163-.073-.363 0-.2-.033-.364-.073-.364-.04 0-.073-.164-.073-.364 0-.2-.033-.363-.074-.363-.04 0-.073-.131-.073-.291 0-.16-.032-.291-.073-.291-.04 0-.073-.098-.073-.218s-.033-.219-.073-.219c-.04 0-.073-.13-.073-.29 0-.16-.033-.292-.073-.292-.04 0-.073-.098-.073-.218s-.033-.218-.073-.218c-.04 0-.073-.098-.073-.218s-.033-.218-.073-.218c-.04 0-.073-.066-.073-.146 0-.08-.033-.145-.073-.145-.04 0-.074-.099-.074-.219s-.032-.218-.073-.218c-.04 0-.073-.098-.073-.218s-.032-.218-.073-.218c-.04 0-.073-.066-.073-.146 0-.08-.033-.145-.073-.145-.04 0-.073-.066-.073-.146 0-.08-.033-.145-.073-.145-.04 0-.073-.066-.073-.146 0-.08-.033-.145-.073-.145-.04 0-.073-.098-.073-.218s-.033-.219-.073-.219c-.04 0-.073-.065-.073-.145 0-.08-.033-.145-.073-.145-.04 0-.073-.066-.073-.146 0-.08-.033-.145-.073-.145-.04 0-.073-.066-.073-.146 0-.08-.033-.145-.074-.145-.04 0-.073-.059-.073-.13 0-.071-.065-.176-.146-.234-.08-.058-.146-.163-.146-.234 0-.072-.033-.13-.073-.13-.04 0-.073-.065-.073-.145 0-.08-.033-.146-.073-.146-.04 0-.073-.058-.073-.13 0-.07-.066-.176-.146-.233-.08-.058-.146-.163-.146-.235 0-.07-.033-.13-.074-.13-.04 0-.073-.057-.073-.129 0-.07-.065-.176-.146-.234-.08-.057-.146-.15-.146-.205 0-.055-.099-.192-.219-.304-.12-.112-.22-.249-.22-.304 0-.055-.065-.147-.145-.205-.08-.058-.146-.15-.146-.205 0-.055-.1-.192-.22-.304-.12-.112-.219-.242-.219-.289 0-.046-.164-.244-.365-.439-.201-.194-.366-.389-.366-.432 0-.102-2.532-2.623-2.634-2.623-.043 0-.239-.163-.434-.363-.196-.2-.394-.364-.441-.364-.047 0-.177-.098-.29-.218-.113-.12-.25-.218-.305-.218-.056 0-.149-.066-.206-.146-.058-.08-.151-.145-.206-.145-.056 0-.193-.099-.306-.219-.112-.12-.25-.218-.305-.218-.056 0-.148-.065-.206-.145-.058-.08-.164-.146-.236-.146-.071 0-.13-.032-.13-.072 0-.04-.058-.073-.13-.073-.071 0-.177-.066-.235-.146-.058-.08-.164-.145-.235-.145-.072 0-.13-.033-.13-.073 0-.04-.059-.073-.13-.073-.072 0-.178-.065-.236-.145-.058-.08-.163-.146-.235-.146-.072 0-.13-.032-.13-.072 0-.04-.066-.073-.146-.073-.08 0-.146-.033-.146-.073 0-.04-.066-.073-.146-.073-.08 0-.147-.032-.147-.072 0-.04-.065-.073-.146-.073-.08 0-.146-.033-.146-.073 0-.04-.066-.072-.146-.072-.08 0-.146-.033-.146-.073 0-.04-.066-.073-.146-.073-.08 0-.146-.033-.146-.073 0-.04-.066-.072-.146-.072-.08 0-.147-.033-.147-.073 0-.04-.098-.073-.219-.073-.12 0-.219-.033-.219-.073 0-.04-.066-.072-.146-.072-.08 0-.146-.033-.146-.073 0-.04-.099-.073-.22-.073-.12 0-.219-.033-.219-.073 0-.04-.065-.072-.146-.072-.08 0-.146-.033-.146-.073 0-.04-.099-.073-.22-.073-.12 0-.218-.033-.218-.073 0-.04-.099-.072-.22-.072-.12 0-.219-.033-.219-.073 0-.04-.098-.073-.219-.073-.12 0-.22-.032-.22-.072 0-.04-.098-.073-.218-.073s-.22-.033-.22-.073c0-.04-.131-.073-.292-.073-.16 0-.292-.032-.292-.072 0-.04-.132-.073-.292-.073-.161 0-.293-.033-.293-.073 0-.04-.131-.073-.292-.073-.16 0-.292-.032-.292-.072 0-.04-.132-.073-.292-.073-.161 0-.293-.033-.293-.073 0-.041-.219-.073-.511-.073-.292 0-.512-.03-.512-.072 0-.043-.243-.073-.584-.073-.341 0-.585-.03-.585-.073 0-.045-.462-.073-1.242-.073S25.72.118 25.72.073a.073.073 0 00-.146 0zM13.736 16.51c0 .04-.098.073-.219.073-.12 0-.219.033-.219.073 0 .04-.059.073-.13.073-.071 0-.177.065-.235.145-.058.08-.148.146-.2.146-.133 0-1.335 1.21-1.335 1.344 0 .06-.033.11-.073.11-.04 0-.073.059-.073.13 0 .07-.066.176-.146.234-.08.058-.146.163-.146.234 0 .071-.033.13-.073.13-.04 0-.073.065-.073.145 0 .08-.033.146-.073.146-.04 0-.073.065-.073.145 0 .08-.033.146-.073.146-.04 0-.074.065-.074.145 0 .08-.032.146-.073.146-.04 0-.073.065-.073.145 0 .08-.033.145-.073.145-.04 0-.073.066-.073.146 0 .08-.033.145-.073.145-.04 0-.073.066-.073.146 0 .08-.033.145-.073.145-.04 0-.073.066-.073.146 0 .08-.033.145-.073.145-.04 0-.073.066-.073.146 0 .08-.033.145-.073.145-.04 0-.073.098-.073.218s-.033.219-.073.219c-.04 0-.073.065-.073.145 0 .08-.033.146-.074.146-.04 0-.073.065-.073.145 0 .137-.048.146-.803.146-.487 0-.804-.029-.804-.073 0-.04-.132-.073-.292-.073-.161 0-.293-.033-.293-.073 0-.04-.05-.072-.111-.072-.145 0-.765-.618-.765-.762 0-.061-.033-.111-.073-.111-.043 0-.073-.243-.073-.582 0-.34.03-.582.073-.582.04 0 .073-.066.073-.145 0-.08.033-.146.073-.146.04 0 .073-.05.073-.11 0-.193.924-1.054 1.13-1.054.102 0 .185-.032.185-.072 0-.04.099-.073.22-.073.12 0 .218-.033.218-.073 0-.04.15-.073.334-.073.192 0 .379-.044.439-.104.152-.151.13-.187-.115-.187-.12 0-.22.033-.22.073 0 .04-.164.073-.365.073-.2 0-.365.033-.365.073 0 .04-.099.072-.22.072-.12 0-.218.033-.218.073 0 .04-.099.073-.22.073-.12 0-.219.033-.219.073 0 .04-.058.072-.13.072-.071 0-.177.066-.235.146-.058.08-.148.145-.2.145-.133 0-.896.773-.896.908 0 .06-.033.11-.073.11-.042 0-.073.219-.073.51 0 .29.031.509.073.509.04 0 .073.065.073.145 0 .08.033.146.073.146.04 0 .073.05.073.111 0 .137.47.616.603.616.052 0 .143.066.2.146a.4.4 0 00.31.145c.11 0 .202.033.202.073 0 .04.066.073.146.073.08 0 .147.032.147.072 0 .04.164.073.365.073.2 0 .365.033.365.073 0 .041.22.073.512.073.292 0 .511.03.511.072 0 .04-.033.073-.073.073-.04 0-.073.058-.073.13 0 .07-.066.176-.146.234-.08.057-.146.163-.146.234 0 .071-.033.13-.073.13-.04 0-.073.058-.073.129 0 .071-.066.176-.146.234-.08.058-.147.156-.147.218 0 .063-.065.16-.146.218-.08.058-.146.149-.146.202 0 .196-.35.453-.618.453-.142 0-.259-.033-.259-.073 0-.044-.316-.072-.803-.072-.488 0-.804.028-.804.072 0 .043-.244.073-.585.073-.34 0-.584.03-.584.073 0 .04-.132.073-.292.073-.161 0-.293.032-.293.072 0 .04-.098.073-.219.073-.12 0-.22.033-.22.073 0 .04-.065.073-.145.073-.08 0-.146.032-.146.072 0 .04-.066.073-.147.073-.08 0-.146.033-.146.073 0 .04-.05.073-.113.073-.146 0-.471.323-.471.47 0 .06-.033.111-.073.111-.04 0-.073.181-.073.403 0 .362.025.428.253.654.14.14.304.253.365.253.062 0 .112.032.112.072 0 .04.066.073.147.073.08 0 .146.033.146.073 0 .044.292.073.73.073.439 0 .73-.03.73-.073 0-.04.132-.073.293-.073.161 0 .292-.033.292-.073 0-.04.066-.072.147-.072.08 0 .146-.033.146-.073 0-.04.066-.073.146-.073.08 0 .146-.032.146-.073 0-.04.066-.072.146-.072.08 0 .146-.033.146-.073 0-.04.052-.073.116-.073.063 0 .241-.13.396-.29.154-.16.318-.292.363-.292.046 0 .277-.196.514-.436.423-.43.436-.436.836-.436.223 0 .406.032.406.072 0 .04.195.073.438.073.244 0 .438.032.438.073 0 .04.132.073.293.073.16 0 .292.032.292.072 0 .04.132.073.292.073.161 0 .293.033.293.073 0 .04.098.072.219.072.12 0 .219.033.219.073 0 .04.098.073.22.073.12 0 .218.033.218.073 0 .04.066.072.146.072.08 0 .146.033.146.073 0 .04.066.073.147.073.08 0 .146.033.146.073 0 .04.066.072.146.072.08 0 .146.033.146.073 0 .04.053.073.117.073s.209.098.322.218c.112.12.243.218.29.218.116 0 .294.186.294.306 0 .054.066.146.146.203a.397.397 0 01.146.307c0 .112.033.203.073.203.042 0 .073.218.073.509 0 .29-.031.509-.073.509-.04 0-.073.065-.073.145 0 .08-.033.146-.073.146-.04 0-.073.065-.073.145 0 .097.049.146.146.146.08 0 .146-.033.146-.073 0-.04.052-.073.115-.073.173 0 .324-.184.324-.395 0-.102.033-.187.073-.187.04 0 .073-.13.073-.29 0-.16-.033-.291-.073-.291-.04 0-.073-.099-.073-.219s-.033-.218-.073-.218c-.04 0-.073-.058-.073-.13 0-.07-.066-.176-.146-.234-.08-.057-.147-.147-.147-.2 0-.123-.625-.745-.749-.745-.052 0-.143-.066-.2-.146-.058-.08-.157-.145-.22-.145-.062 0-.16-.066-.219-.146-.058-.08-.164-.145-.235-.145-.072 0-.13-.033-.13-.073 0-.04-.099-.073-.22-.073-.12 0-.219-.032-.219-.072 0-.04-.065-.073-.146-.073-.08 0-.146-.033-.146-.073 0-.04-.066-.072-.146-.072-.08 0-.146-.033-.146-.073 0-.04-.099-.073-.22-.073-.12 0-.219-.033-.219-.073 0-.04-.065-.072-.146-.072-.08 0-.146-.033-.146-.073 0-.04-.131-.073-.292-.073-.16 0-.292-.033-.292-.073 0-.04-.099-.072-.22-.072-.12 0-.219-.033-.219-.073 0-.04-.131-.073-.292-.073-.16 0-.292-.033-.292-.073 0-.04-.099-.072-.22-.072-.152 0-.219-.036-.219-.117 0-.064.099-.208.22-.32.12-.112.219-.256.219-.32s.033-.116.073-.116c.04 0 .073-.059.073-.13 0-.07.066-.176.146-.234.08-.058.146-.163.146-.234 0-.071.033-.13.073-.13.04 0 .073-.065.073-.145 0-.08.033-.145.073-.145.04 0 .073-.05.073-.112 0-.061.114-.225.254-.364.214-.213.304-.252.584-.252.182 0 .332-.033.332-.073 0-.04.098-.072.219-.072.12 0 .219-.033.219-.073 0-.04.098-.073.22-.073.12 0 .218-.033.218-.073 0-.04.066-.072.146-.072.08 0 .146-.033.146-.073 0-.04.066-.073.147-.073.08 0 .146-.032.146-.073 0-.04.066-.072.146-.072.08 0 .146-.033.146-.073 0-.04.066-.073.146-.073.08 0 .146-.033.146-.073 0-.04.059-.072.13-.072.072 0 .178-.066.236-.146.058-.08.147-.145.2-.145.051 0 .471-.376.933-.836.462-.46.84-.878.84-.93 0-.051.065-.14.146-.198.08-.058.146-.163.146-.234 0-.072.033-.13.073-.13.04 0 .073-.065.073-.145 0-.08.033-.146.073-.146.04 0 .073-.098.073-.218s.033-.218.073-.218c.043 0 .073-.255.073-.62 0-.612-.004-.625-.253-.874-.14-.138-.304-.252-.365-.252-.062 0-.113-.033-.113-.073 0-.042-.243-.072-.584-.072-.341 0-.585.03-.585.072zm.877.582c0 .04.052.073.115.073.232 0 .324.194.324.686 0 .27-.032.478-.073.478-.04 0-.074.098-.074.218s-.032.218-.073.218c-.04 0-.073.066-.073.146 0 .08-.033.145-.073.145-.04 0-.073.059-.073.13 0 .07-.066.176-.146.234-.08.058-.146.147-.146.199 0 .122-1.504 1.62-1.627 1.62-.052 0-.142.065-.2.145-.058.08-.163.145-.235.145-.072 0-.13.033-.13.073 0 .04-.066.073-.146.073-.08 0-.146.033-.146.073 0 .04-.066.072-.146.072-.08 0-.147.033-.147.073 0 .04-.065.073-.146.073-.08 0-.146.032-.146.072 0 .04-.099.073-.219.073s-.22.033-.22.073c0 .04-.098.073-.218.073-.121 0-.22.032-.22.072 0 .04-.098.073-.219.073-.12 0-.219-.033-.219-.073 0-.04.033-.072.073-.072.04 0 .073-.066.073-.146 0-.08.033-.145.073-.145.04 0 .073-.059.073-.13 0-.07.066-.176.146-.234.08-.058.146-.163.146-.234 0-.071.033-.13.074-.13.04 0 .073-.058.073-.13 0-.07.065-.176.146-.233.08-.058.146-.163.146-.235 0-.07.033-.129.073-.129.04 0 .073-.058.073-.13 0-.07.066-.176.146-.234.08-.057.146-.15.146-.205 0-.055.099-.192.22-.304.12-.112.219-.243.219-.29 0-.049.098-.18.219-.292.12-.112.22-.24.22-.285 0-.113 1.072-1.17 1.187-1.17.052 0 .142-.065.2-.145.058-.08.164-.146.236-.146.071 0 .13-.032.13-.072 0-.04.098-.073.219-.073.12 0 .219-.033.219-.073a.073.073 0 01.146 0zm12.22.036c-.05.057-.09.22-.09.361 0 .142-.034.258-.074.258-.043 0-.073.267-.073.655s.03.654.073.654c.04 0 .073.164.073.364 0 .2.033.364.073.364.04 0 .073.065.073.145 0 .097-.049.146-.146.146-.085 0-.146.048-.146.116 0 .064-.099.208-.22.32-.12.112-.218.256-.218.32s-.033.116-.074.116c-.04 0-.072.066-.072.146 0 .08-.033.145-.074.145-.04 0-.073.066-.073.146 0 .08-.033.145-.073.145-.04 0-.073.066-.073.146 0 .08-.033.145-.073.145-.04 0-.073.066-.073.146 0 .08-.033.145-.073.145-.04 0-.073.098-.073.218s-.033.219-.073.219c-.04 0-.073.13-.073.29 0 .16-.033.292-.073.292-.043 0-.073.26-.073.638 0 .555-.02.652-.147.744-.08.057-.146.163-.146.234 0 .07-.032.13-.073.13-.04 0-.073.052-.073.116s-.098.208-.219.32c-.12.112-.22.24-.22.287 0 .114-.336.44-.455.44-.053 0-.144.066-.202.146a.4.4 0 01-.308.145c-.112 0-.203.033-.203.073 0 .04-.165.072-.365.072-.201 0-.366-.032-.366-.072 0-.04-.066-.073-.146-.073-.097 0-.146-.049-.146-.145 0-.08-.033-.146-.073-.146-.04 0-.073-.13-.073-.29 0-.161.033-.292.073-.292.04 0 .073-.13.073-.29 0-.276.012-.292.22-.292.12 0 .218-.033.218-.073 0-.04.132-.072.293-.072.16 0 .292-.033.292-.073 0-.04.099-.073.219-.073s.22-.033.22-.073c0-.04.065-.072.145-.072.08 0 .147-.033.147-.073 0-.04.05-.073.11-.073.062 0 .292-.179.512-.398.22-.22.4-.448.4-.51 0-.06.033-.11.074-.11.112 0 .086-.506-.032-.623a.37.37 0 00-.22-.104c-.062 0-.114-.033-.114-.073 0-.04-.195-.073-.438-.073-.244 0-.439.032-.439.073 0 .04-.098.073-.219.073-.12 0-.219.032-.219.072 0 .04-.059.073-.13.073-.072 0-.177.066-.235.146-.058.08-.149.145-.201.145-.124 0-.75.622-.75.746 0 .052-.065.142-.145.2-.08.057-.146.163-.146.234 0 .071-.033.13-.074.13-.04 0-.073.065-.073.145 0 .08-.033.145-.073.145-.04 0-.073.066-.073.146 0 .08-.033.145-.073.145-.042 0-.073.243-.073.582 0 .34.03.582.073.582.04 0 .073.051.073.114 0 .147.176.322.324.322.063 0 .115.033.115.073 0 .04.065.073.146.073.08 0 .146.033.146.073 0 .041.22.072.511.072.293 0 .512-.03.512-.072 0-.04.099-.073.219-.073s.22-.033.22-.073c0-.04.05-.073.11-.073.135 0 1.058-.904 1.058-1.037 0-.052.066-.141.146-.2.08-.057.146-.162.146-.233 0-.157.05-.164.188-.026.058.057.105.22.105.364 0 .143.033.26.073.26.04 0 .073.058.073.129 0 .071.066.177.146.234.08.058.146.148.146.2 0 .123.772.891.896.891.052 0 .142.066.2.146.058.08.164.145.235.145.072 0 .13.033.13.073 0 .04.1.073.22.073s.219.032.219.072c0 .04.131.073.292.073.16 0 .292.033.292.073 0 .04.165.073.366.073.2 0 .365.032.365.072 0 .044.317.073.804.073.487 0 .803-.029.803-.073 0-.04.165-.072.366-.072.2 0 .365-.033.365-.073 0-.04.132-.073.293-.073.16 0 .292-.032.292-.073 0-.04.098-.072.219-.072.12 0 .22-.033.22-.073 0-.04.065-.073.145-.073.08 0 .146-.032.146-.073 0-.04.066-.072.146-.072.08 0 .147-.033.147-.073 0-.04.065-.073.146-.073.08 0 .146-.032.146-.072 0-.04.053-.073.117-.073s.209-.098.321-.218c.113-.12.242-.219.288-.219.106 0 .59-.479.59-.584 0-.084.177-.288.25-.288.023 0 .041.098.041.218s.033.218.073.218c.04 0 .074.05.074.112 0 .146.325.47.471.47.062 0 .113.033.113.073 0 .04.066.072.146.072.08 0 .146-.032.146-.072 0-.04.066-.073.146-.073.08 0 .147-.033.147-.073 0-.04.065-.073.146-.073.08 0 .146-.032.146-.072 0-.04.05-.073.111-.073.128 0 .766-.61.766-.73 0-.084.178-.288.25-.288.085 0 .039.57-.05.612-.072.034-.072.05 0 .085.05.023.092.09.092.148 0 .141.328.464.472.464.062 0 .112.033.112.073 0 .04.066.072.146.072.08 0 .147-.032.147-.072 0-.04.065-.073.146-.073.08 0 .146-.033.146-.073 0-.04.05-.073.111-.073.125 0 .912-.754.912-.874 0-.117.366-.459.424-.396.028.03.01.068-.04.086-.05.018-.092.095-.092.172 0 .077-.033.14-.073.14-.04 0-.073.065-.073.145 0 .08-.033.146-.073.146-.04 0-.073.065-.073.145 0 .08-.033.146-.073.146-.04 0-.073.098-.073.218 0 .205.017.218.286.218.157 0 .305.04.329.09.034.074.05.074.085 0 .023-.05.106-.09.183-.09.157 0 .188-.111.048-.176-.073-.034-.073-.05 0-.085.055-.025.092-.185.092-.4 0-.196.032-.357.073-.357.04 0 .073-.099.073-.219s.033-.218.073-.218c.04 0 .073-.052.073-.116s.099-.208.22-.32c.12-.112.218-.256.218-.32s.052-.117.115-.117.274-.163.47-.363c.196-.2.407-.364.47-.364s.114-.033.114-.073c0-.04.066-.072.146-.072.08 0 .147-.033.147-.073 0-.04.065-.073.146-.073.08 0 .146-.033.146-.073 0-.04.15-.072.334-.072.587 0 .716.341.29.766-.14.138-.304.252-.366.252s-.112.033-.112.073c0 .04-.129.072-.286.072-.16 0-.303.04-.323.091-.028.069-.058.064-.122-.018-.063-.082-.093-.087-.12-.018-.021.05-.101.09-.178.09-.085 0-.14.051-.14.13 0 .071-.066.177-.146.235a.397.397 0 00-.146.3c0 .108-.041.216-.092.239-.073.034-.073.05 0 .085.05.023.092.17.092.327s.033.285.073.285c.04 0 .073.051.073.114 0 .14.174.322.307.322.055 0 .146.066.204.146.09.124.19.145.674.145.33 0 .568-.03.568-.072 0-.04.066-.073.147-.073.08 0 .146-.033.146-.073 0-.04.05-.073.113-.073s.308-.196.544-.436c.237-.24.449-.436.471-.436.023 0 .04.065.04.145 0 .08.034.146.074.146.04 0 .073.05.073.111 0 .183.486.616.692.616.101 0 .185.033.185.073 0 .04.195.072.438.072.244 0 .438-.032.438-.072 0-.04.1-.073.22-.073s.219-.033.219-.073c0-.04.05-.073.11-.073.145 0 1.205-1.055 1.205-1.199 0-.06.033-.11.073-.11.04 0 .073-.065.073-.145 0-.08.033-.146.073-.146.04 0 .073-.065.073-.145 0-.08.033-.146.073-.146.04 0 .073-.065.073-.145 0-.08-.018-.146-.041-.146-.08 0-.25.209-.25.306 0 .054-.067.146-.147.203-.08.058-.146.156-.146.219 0 .062-.066.16-.146.218-.08.058-.146.148-.146.2 0 .132-.63.745-.766.745-.061 0-.111.033-.111.073 0 .04-.066.073-.146.073-.08 0-.146.033-.146.073 0 .04-.183.072-.406.072-.332 0-.437-.031-.584-.178-.163-.162-.18-.237-.18-.8v-.622h.22c.12 0 .219-.033.219-.073 0-.04.131-.072.292-.072.16 0 .292-.033.292-.073 0-.04.1-.073.22-.073s.219-.033.219-.073c0-.04.066-.072.146-.072.08 0 .146-.033.146-.073 0-.04.05-.073.111-.073.145 0 .912-.763.912-.907 0-.061.033-.111.073-.111.112 0 .087-.506-.031-.623a.37.37 0 00-.22-.104c-.063 0-.114-.033-.114-.073 0-.04-.195-.073-.439-.073-.243 0-.438.032-.438.073 0 .04-.099.073-.22.073-.12 0-.218.032-.218.072 0 .04-.053.073-.117.073-.065 0-.21.098-.322.218-.112.12-.242.219-.288.219-.115 0-.442.335-.442.453 0 .053-.066.143-.147.201-.08.058-.146.156-.146.218 0 .063-.066.16-.146.219-.08.057-.146.163-.146.234 0 .071-.033.13-.073.13-.04 0-.073.065-.073.145 0 .08-.033.145-.073.145-.04 0-.073.052-.073.116s-.099.209-.22.32c-.12.113-.219.241-.219.287 0 .122-.489.587-.618.587-.062 0-.112.032-.112.072 0 .04-.066.073-.146.073-.08 0-.147.033-.147.073 0 .04-.065.072-.146.072-.08 0-.146-.032-.146-.072 0-.04-.084-.073-.186-.073-.205 0-.545-.293-.545-.47 0-.061-.032-.112-.073-.112-.04 0-.073-.208-.073-.478 0-.491.092-.686.324-.686.063 0 .115-.033.115-.073 0-.04.131-.072.292-.072.16 0 .292-.033.292-.073 0-.04.066-.073.146-.073.08 0 .147-.032.147-.072 0-.04.065-.073.146-.073.08 0 .146-.033.146-.073 0-.04.05-.073.113-.073.146 0 .471-.324.471-.47 0-.061.033-.111.073-.111.04 0 .073-.066.073-.146 0-.08.033-.145.073-.145.134 0 .076-.223-.106-.404-.154-.153-.247-.178-.657-.178-.27 0-.479.031-.479.072 0 .04-.098.073-.219.073-.12 0-.219.033-.219.073 0 .04-.059.073-.13.073-.072 0-.177.065-.235.145-.058.08-.164.146-.236.146-.071 0-.13.032-.13.072 0 .04-.05.073-.113.073s-.308.196-.544.436c-.237.24-.449.437-.471.437-.022 0-.04-.066-.04-.146 0-.08.032-.145.072-.145.04 0 .073-.066.073-.146 0-.08.033-.145.074-.145.04 0 .073-.058.073-.13 0-.07.065-.176.146-.234.08-.057.146-.156.146-.218s.066-.16.146-.218c.08-.058.146-.163.146-.235 0-.07.033-.129.073-.129.04 0 .073-.052.073-.116s.099-.208.22-.32c.12-.112.219-.25.219-.304 0-.055.065-.148.146-.205.08-.058.146-.15.146-.204 0-.054.131-.225.292-.378.16-.154.292-.317.292-.362 0-.045.23-.308.512-.584.281-.276.511-.52.511-.542 0-.022-.065-.04-.146-.04-.08 0-.146-.033-.146-.073 0-.04-.099-.072-.22-.072-.12 0-.218.032-.218.072 0 .04-.05.073-.111.073-.136 0-.912.76-.912.892 0 .052-.066.142-.146.2-.08.057-.147.15-.147.204 0 .055-.098.192-.219.304-.12.113-.219.257-.219.32 0 .064-.033.117-.073.117-.04 0-.073.058-.073.13 0 .07-.066.176-.146.233-.08.058-.146.164-.146.235 0 .07-.033.13-.073.13-.04 0-.073.057-.073.129 0 .07-.066.176-.147.234-.08.058-.146.156-.146.218s-.066.16-.146.218c-.08.058-.146.163-.146.235 0 .07-.033.129-.073.129-.04 0-.073.065-.073.146 0 .08-.033.145-.073.145-.04 0-.073.058-.073.13 0 .07-.066.176-.146.234-.08.057-.147.155-.147.218 0 .062-.065.16-.146.218-.08.058-.146.156-.146.218 0 .063-.066.16-.146.218-.08.058-.146.15-.146.206 0 .055-.099.192-.22.304-.12.112-.218.24-.218.285 0 .045-.148.229-.327.408-.264.262-.377.325-.585.325h-.258v-.364c0-.2.033-.363.074-.363.04 0 .073-.099.073-.219s.032-.218.073-.218c.04 0 .073-.065.073-.145 0-.08.033-.146.073-.146.04 0 .073-.065.073-.145 0-.08.033-.146.073-.146.04 0 .073-.058.073-.13 0-.07.066-.176.146-.233.08-.058.146-.15.146-.206 0-.055.099-.191.22-.304.12-.112.219-.223.219-.247 0-.024-.215-.043-.478-.043-.447 0-.493.015-.73.252-.14.138-.254.302-.254.363 0 .062-.032.112-.073.112-.04 0-.073.058-.073.13 0 .07-.066.176-.146.233-.08.058-.146.15-.146.206 0 .055-.099.192-.22.304-.12.112-.218.24-.218.285 0 .123-.785.879-.912.879-.061 0-.111.032-.111.072 0 .04-.165.073-.366.073-.311 0-.365-.02-.365-.14 0-.076-.041-.158-.091-.181-.073-.034-.073-.051 0-.085.05-.024.091-.17.091-.328 0-.156.033-.284.073-.284.04 0 .073-.059.073-.13 0-.071.066-.176.146-.234.08-.058.146-.156.146-.218 0-.063.066-.16.147-.219.08-.057.146-.147.146-.199 0-.123.918-1.037 1.042-1.037.052 0 .142-.066.2-.145.058-.08.156-.146.219-.146s.161-.065.22-.145c.082-.115.188-.146.498-.146.342 0 .419.028.597.218.22.235.439.288.439.106 0-.145-.326-.47-.472-.47-.062 0-.113-.032-.113-.072 0-.043-.268-.073-.657-.073-.39 0-.658.03-.658.073 0 .04-.099.073-.22.073-.12 0-.218.032-.218.072 0 .04-.066.073-.147.073-.08 0-.146.033-.146.073 0 .04-.066.073-.146.073-.08 0-.146.032-.146.072 0 .04-.05.073-.111.073-.129 0-.766.61-.766.733 0 .045-.099.173-.219.285-.12.112-.22.256-.22.32s-.032.117-.072.117c-.04 0-.073.065-.073.145 0 .08-.033.146-.073.146-.04 0-.074.065-.074.145 0 .08-.032.146-.073.146-.04 0-.073.058-.073.13 0 .07-.065.176-.146.233-.08.058-.146.148-.146.2 0 .125-.478.6-.602.6-.053 0-.144.066-.202.146-.058.08-.156.145-.219.145-.062 0-.161.066-.219.146-.058.08-.164.145-.235.145-.072 0-.13.033-.13.073 0 .04-.099.073-.22.073-.12 0-.219.033-.219.073 0 .04-.066.072-.146.072-.08 0-.146.033-.146.073 0 .04-.099.073-.22.073-.12 0-.218.032-.218.072 0 .041-.195.073-.439.073-.243 0-.438.033-.438.073 0 .045-.414.073-1.096.073-.682 0-1.096-.028-1.096-.073 0-.04-.132-.073-.292-.073-.161 0-.293-.032-.293-.073 0-.04-.098-.072-.219-.072-.12 0-.22-.033-.22-.073 0-.04-.065-.073-.145-.073-.08 0-.146-.032-.146-.072 0-.04-.05-.073-.112-.073-.145 0-.765-.618-.765-.762 0-.061-.033-.111-.073-.111-.04 0-.073-.066-.073-.145 0-.08-.033-.146-.073-.146-.04 0-.073-.13-.073-.29 0-.16-.033-.292-.074-.292-.042 0-.072-.242-.072-.582 0-.34.03-.582.072-.582.04 0 .074-.163.074-.363 0-.2.032-.364.073-.364.04 0 .073-.13.073-.291 0-.16.033-.29.073-.29.04 0 .073-.1.073-.22s.033-.217.073-.217c.04 0 .073-.066.073-.146 0-.08.033-.145.073-.145.04 0 .073-.066.073-.146 0-.08.033-.145.073-.145.04 0 .073-.066.073-.146 0-.08.033-.145.073-.145.04 0 .073-.052.073-.115 0-.062.05-.163.11-.223.097-.097.122-.097.22 0 .06.06.109.145.109.19 0 .112.634.73.749.73.052 0 .143.065.2.145.059.08.164.146.236.146.071 0 .13.032.13.072 0 .04.066.073.146.073.08 0 .146.033.146.073 0 .04.066.073.146.073.08 0 .146.032.146.072 0 .04.132.073.293.073.16 0 .292.033.292.073 0 .04.164.073.365.073.201 0 .366.032.366.072 0 .046.414.073 1.096.073.682 0 1.096-.027 1.096-.073 0-.04.164-.072.365-.072.2 0 .365-.033.365-.073 0-.04.099-.073.22-.073.12 0 .219-.033.219-.073 0-.04.066-.072.146-.072.08 0 .146-.033.146-.073 0-.04.066-.073.146-.073.08 0 .146-.033.146-.073 0-.04.059-.072.13-.072.072 0 .178-.066.236-.146.057-.08.148-.145.2-.145.124 0 .75-.622.75-.746 0-.052.065-.142.146-.2.08-.058.146-.163.146-.234 0-.071.033-.13.073-.13.04 0 .073-.128.073-.285 0-.16.04-.3.091-.321.07-.028.065-.058-.018-.12-.083-.064-.087-.094-.018-.122.108-.043.124-.315.018-.315-.04 0-.073-.099-.073-.219s-.033-.218-.073-.218c-.04 0-.073-.052-.073-.116s-.099-.208-.22-.32c-.12-.112-.219-.256-.219-.32s-.058-.117-.13-.117c-.071 0-.177-.065-.235-.145-.058-.08-.164-.146-.235-.146-.072 0-.13-.032-.13-.072 0-.04-.066-.073-.147-.073-.08 0-.146-.033-.146-.073 0-.04-.131-.073-.292-.073-.16 0-.292-.032-.292-.072 0-.04-.132-.073-.292-.073-.161 0-.293-.033-.293-.073 0-.045-.438-.073-1.169-.073-.73 0-1.169.028-1.169.073 0 .04-.164.073-.365.073-.201 0-.366.033-.366.073 0 .04-.098.072-.219.072-.12 0-.219.033-.219.073 0 .04-.099.073-.219.073s-.22.033-.22.073c0 .04-.065.072-.145.072-.08 0-.146.033-.146.073 0 .04-.066.073-.147.073-.08 0-.146.033-.146.073 0 .04-.058.072-.13.072-.071 0-.177.066-.235.146-.058.08-.157.145-.22.145-.062 0-.16.066-.219.146-.057.08-.149.145-.203.145-.054 0-.258.164-.454.364-.196.2-.375.364-.397.364-.023 0-.042-.099-.042-.219s-.032-.218-.073-.218c-.045 0-.073-.388-.073-1.018 0-.56-.024-1.017-.054-1.016-.03.002-.096.05-.146.106zm6.631.692c0 .04.132.072.292.072.161 0 .293.033.293.073 0 .04.098.073.219.073.12 0 .22.033.22.073 0 .04.065.072.145.072.08 0 .146.033.146.073 0 .04.05.073.112.073.146 0 .619.47.619.616 0 .061.033.111.073.111.04 0 .073.066.073.146 0 .08.033.145.073.145.043 0 .073.243.073.582 0 .34-.03.582-.073.582-.04 0-.073.065-.073.145 0 .08-.033.146-.073.146-.04 0-.073.058-.073.13 0 .07-.066.176-.146.234-.08.057-.146.149-.146.203 0 .126-.18.306-.308.306-.054 0-.146.065-.204.145-.058.08-.156.146-.219.146s-.161.065-.22.145c-.057.08-.163.146-.234.146-.072 0-.13.032-.13.072 0 .04-.132.073-.293.073-.16 0-.292.033-.292.073 0 .04-.164.073-.365.073-.201 0-.366.032-.366.072 0 .045-.34.073-.876.073s-.877-.028-.877-.073c0-.04-.165-.072-.366-.072-.2 0-.365-.033-.365-.073 0-.04-.131-.073-.292-.073-.16 0-.292-.033-.292-.073 0-.04-.066-.072-.146-.072-.08 0-.147-.033-.147-.073 0-.04-.065-.073-.146-.073-.08 0-.146-.032-.146-.073 0-.04-.05-.072-.11-.072-.062 0-.325-.212-.585-.472-.26-.259-.474-.52-.474-.582 0-.06-.033-.11-.073-.11-.135 0-.078-.401.073-.51.08-.057.146-.147.146-.2 0-.115.622-.745.736-.745.045 0 .175-.098.287-.218.113-.12.25-.218.305-.218.056 0 .149-.066.207-.146.057-.08.163-.145.235-.145.071 0 .13-.033.13-.073 0-.04.066-.073.146-.073.08 0 .146-.032.146-.072 0-.04.066-.073.146-.073.08 0 .146-.033.146-.073 0-.04.066-.073.146-.073.08 0 .147-.032.147-.072 0-.04.131-.073.292-.073.16 0 .292-.033.292-.073 0-.04.132-.073.293-.073.16 0 .292-.032.292-.072 0-.044.316-.073.803-.073.488 0 .804.029.804.073zm-12.768 4.84l-.384.394v.614c0 .42.03.627.092.656.073.034.073.05 0 .085-.05.023-.092.105-.092.181 0 .077-.033.14-.073.14-.04 0-.073.065-.073.145 0 .08-.033.146-.073.146-.04 0-.073.058-.073.13 0 .07-.066.176-.146.233-.08.058-.146.148-.146.2 0 .133-.482.6-.619.6-.062 0-.112.033-.112.073 0 .04-.164.073-.365.073h-.366v-.364c0-.2.033-.363.074-.363.04 0 .073-.099.073-.219s.032-.218.073-.218c.04 0 .073-.065.073-.145 0-.08.033-.146.073-.146.04 0 .073-.098.073-.218s.033-.218.073-.218c.04 0 .073-.066.073-.146 0-.08.033-.145.073-.145.04 0 .073-.098.073-.218s.033-.219.073-.219c.043 0 .073-.242.073-.581v-.582H18.12v.212c0 .117.041.231.092.254.073.034.073.051 0 .085-.055.026-.092.185-.092.4 0 .197-.033.358-.073.358-.04 0-.073.058-.073.13 0 .07-.066.176-.146.234-.08.057-.146.163-.146.234 0 .071-.033.13-.073.13-.04 0-.073.065-.073.145 0 .08-.033.145-.073.145-.04 0-.073.052-.073.116s-.099.209-.22.32c-.12.113-.219.241-.219.287 0 .122-.489.587-.618.587-.062 0-.112.032-.112.072 0 .04-.183.073-.407.073-.399 0-.616-.103-.616-.291 0-.12.19-.29.323-.29a.115.115 0 00.115-.116c0-.063.132-.24.292-.394.161-.154.293-.331.293-.394 0-.064.032-.115.073-.115.04 0 .073-.099.073-.219s.033-.218.073-.218c.04 0 .073-.13.073-.29 0-.16.033-.292.073-.292.04 0 .073-.098.073-.218s-.033-.218-.073-.218c-.04 0-.073-.083-.073-.185 0-.275-.305-.542-.618-.542-.142 0-.259-.033-.259-.073 0-.04-.066-.073-.146-.073-.08 0-.146.033-.146.073 0 .04-.132.073-.292.073-.161 0-.293.032-.293.072 0 .04-.058.073-.13.073-.071 0-.177.066-.235.146-.058.08-.148.145-.2.145-.133 0-1.042.919-1.042 1.053 0 .061-.033.11-.073.11-.04 0-.073.066-.073.146 0 .08-.033.146-.073.146-.04 0-.073.065-.073.145 0 .08-.033.146-.073.146-.04 0-.074.098-.074.218s-.032.218-.073.218c-.04 0-.073.194-.073.437 0 .242.033.436.073.436.04 0 .073.05.073.112 0 .177.34.47.545.47.103 0 .186.033.186.073 0 .04.066.072.146.072.08 0 .146-.032.146-.072 0-.04.132-.073.293-.073.16 0 .292-.033.292-.073 0-.04.066-.073.146-.073.08 0 .146-.032.146-.072 0-.04.099-.073.22-.073.12 0 .219.033.219.073 0 .04.065.072.146.072.08 0 .146.033.146.073 0 .04.164.073.365.073.201 0 .366-.033.366-.073 0-.04.065-.073.146-.073.08 0 .146-.032.146-.072 0-.04.05-.073.111-.073.126 0 .912-.755.912-.877 0-.082.178-.287.25-.287.023 0 .042.066.042.146 0 .08-.033.145-.073.145-.041 0-.073.207-.073.476 0 .409.025.502.18.655.146.146.25.178.584.178.223 0 .405-.032.405-.072 0-.04.085-.073.19-.073.117 0 .268-.084.394-.218.113-.12.244-.218.29-.218.111 0 .295-.184.295-.293 0-.047.099-.177.22-.29.12-.112.218-.256.218-.32s.033-.116.073-.116c.04 0 .073-.058.073-.13 0-.07.066-.176.147-.233a.4.4 0 00.146-.291c0-.103.065-.234.146-.291a.397.397 0 00.146-.308c0-.11.033-.202.073-.202.04 0 .073-.065.073-.145 0-.08.033-.145.073-.145.04 0 .073-.099.073-.219s.033-.218.073-.218c.04 0 .073-.065.073-.145 0-.08.033-.146.073-.146.109 0 .089-.213-.03-.332-.195-.193-.43-.108-.828.3zm3.854.324c0 .16-.033.291-.073.291-.04 0-.073.05-.073.11 0 .191-.778.908-.985.908-.101 0-.184.033-.184.073 0 .04-.066.073-.146.073-.08 0-.146.032-.146.072 0 .04-.132.073-.293.073-.16 0-.292-.033-.292-.073 0-.04.033-.072.073-.072.04 0 .073-.053.073-.117s.099-.208.22-.32c.12-.112.219-.24.219-.286 0-.114.485-.586.602-.586.053 0 .143-.066.201-.146.058-.08.164-.145.236-.145.071 0 .13-.033.13-.073 0-.04.098-.073.219-.073.207 0 .22.016.22.291zm23.966 0c0 .16-.033.291-.073.291-.04 0-.073.065-.073.146 0 .08-.033.145-.073.145-.04 0-.073.065-.073.145 0 .085-.05.146-.117.146-.065 0-.21.098-.322.218-.112.12-.257.218-.321.218-.065 0-.117.033-.117.073 0 .04-.099.073-.22.073-.12 0-.219.032-.219.072 0 .04-.131.073-.292.073-.16 0-.292-.033-.292-.073 0-.04.033-.072.073-.072.04 0 .073-.052.073-.115s.131-.24.292-.394c.16-.154.292-.318.292-.364 0-.111.185-.29.306-.294.053-.002.211-.132.352-.288.21-.232.306-.285.53-.288.271-.003.274 0 .274.288zm-32.475.033c.148.147.18.25.18.582 0 .222-.033.403-.073.403-.04 0-.073.099-.073.219s-.033.218-.074.218c-.04 0-.073.065-.073.145 0 .08-.033.146-.073.146-.04 0-.073.058-.073.13 0 .07-.066.176-.146.233-.08.058-.146.163-.146.235 0 .07-.033.13-.073.13-.04 0-.073-.052-.073-.115 0-.29-.546-.444-.772-.218-.12.118-.146.768-.032.768.109 0 .089.214-.031.333a.474.474 0 01-.293.104c-.103 0-.187.033-.187.073 0 .04-.066.072-.146.072-.08 0-.147-.032-.147-.072 0-.04-.065-.073-.146-.073-.134 0-.146-.049-.146-.582 0-.34.03-.582.073-.582.04 0 .073-.065.073-.145 0-.08.033-.146.073-.146.04 0 .073-.065.073-.145 0-.08.033-.146.073-.146.04 0 .074-.058.074-.13 0-.07.065-.176.146-.233.08-.058.146-.148.146-.2 0-.132.776-.891.911-.891.062 0 .112-.033.112-.073 0-.04.066-.073.146-.073.08 0 .146-.033.146-.073 0-.142.375-.07.551.106zm24.291 1.93a.073.073 0 01-.146 0 .073.073 0 01.146 0zm-33.756.728c0 .04.099.073.22.073.12 0 .218.017.218.038 0 .083-1.1 1.126-1.188 1.126-.052 0-.142.065-.2.145-.058.08-.164.146-.235.146-.072 0-.13.032-.13.072 0 .04-.066.073-.146.073-.08 0-.147.033-.147.073 0 .04-.098.073-.219.073-.12 0-.219.032-.219.072 0 .04-.164.073-.365.073-.201 0-.366.033-.366.073 0 .04-.131.073-.292.073-.16 0-.292-.033-.292-.073 0-.04-.132-.073-.292-.073-.161 0-.293-.032-.293-.073 0-.04-.051-.072-.114-.072-.355 0-.454-.677-.145-.986.099-.098.23-.178.293-.178.062 0 .112-.033.112-.073 0-.04.066-.072.147-.072.08 0 .146-.033.146-.073 0-.04.098-.073.219-.073.12 0 .22-.033.22-.073 0-.04.098-.072.218-.072s.22-.033.22-.073c0-.04.194-.073.438-.073.243 0 .438-.032.438-.073 0-.044.341-.072.877-.072s.877.028.877.072zm21.573 3.532c-.211.216-.384.443-.384.504 0 .06-.033.11-.073.11-.04 0-.073.066-.073.146 0 .08-.033.145-.073.145-.04 0-.073.066-.073.146 0 .08-.033.145-.073.145-.04 0-.073.099-.073.218 0 .12-.033.219-.073.219-.04 0-.074.065-.074.145 0 .08-.032.146-.073.146-.04 0-.073.098-.073.218v.218h-.438c-.244 0-.438-.032-.438-.073 0-.04-.052-.072-.115-.072-.22 0-.324-.196-.324-.613 0-.223.033-.406.073-.406.04 0 .073-.05.073-.112 0-.164.334-.47.514-.47.175 0 .41-.198.325-.276-.03-.028-.07-.01-.088.04-.017.05-.128.09-.245.09-.117 0-.213.034-.213.074 0 .04-.051.072-.113.072-.147 0-.472.324-.472.47 0 .062-.033.112-.073.112-.04 0-.073.149-.073.33 0 .28.039.368.253.582.14.139.304.252.366.252.061 0 .112.033.112.073 0 .04.131.073.292.073.276 0 .292.012.292.218 0 .12-.033.218-.073.218-.04 0-.073.065-.073.145 0 .08-.033.146-.073.146-.04 0-.073.051-.073.114a.368.368 0 01-.105.218c-.12.12-.333.14-.333.032 0-.04-.165-.073-.366-.073-.2 0-.365.033-.365.073 0 .04-.132.072-.293.072-.16 0-.292.033-.292.073 0 .04-.05.073-.112.073-.165 0-.618.48-.618.655 0 .084.08.232.179.33.147.147.252.179.585.179.222 0 .405-.033.405-.073 0-.04.065-.073.146-.073.08 0 .146-.033.146-.073 0-.04.05-.072.112-.072.145 0 .619-.471.619-.616 0-.082.078-.112.292-.112.16 0 .292.033.292.073 0 .04.132.073.292.073.161 0 .293.032.293.072 0 .04.098.073.219.073.12 0 .219.033.219.073 0 .04.05.073.111.073.062 0 .26.146.439.325.308.307.327.348.327.727 0 .222-.033.403-.073.403a.073.073 0 00-.073.072c0 .108.214.088.334-.031.118-.117.143-.623.031-.623-.04 0-.073-.066-.073-.146 0-.08-.033-.145-.073-.145-.04 0-.073-.05-.073-.113 0-.145-.326-.47-.472-.47-.062 0-.113-.032-.113-.072 0-.04-.066-.073-.146-.073-.08 0-.146-.033-.146-.073 0-.04-.066-.072-.146-.072-.08 0-.146-.033-.146-.073 0-.04-.066-.073-.146-.073-.08 0-.147-.032-.147-.072 0-.04-.098-.073-.219-.073-.12 0-.219-.033-.219-.073 0-.04-.066-.073-.146-.073-.08 0-.146-.025-.146-.056 0-.032.066-.104.146-.162.08-.058.146-.163.146-.234 0-.071.033-.13.073-.13.04 0 .073-.065.073-.145 0-.08.033-.145.073-.145.04 0 .073-.066.073-.146 0-.113.05-.146.22-.146.12 0 .219-.032.219-.072 0-.04.066-.073.146-.073.08 0 .146-.033.146-.073 0-.04.059-.072.13-.072.072 0 .177-.066.235-.146.058-.08.149-.145.201-.145.133 0 .75-.627.75-.762 0-.061.032-.111.072-.111.04 0 .073-.066.073-.146 0-.08.033-.145.073-.145.04 0 .073-.131.073-.291 0-.16.033-.291.074-.291.133 0 .075-.223-.107-.403-.137-.137-.253-.178-.493-.174-.28.005-.354.047-.697.4zm1.077.25c0 .2-.032.364-.073.364-.04 0-.073.066-.073.146 0 .08-.033.145-.073.145-.04 0-.073.05-.073.111 0 .135-.762.908-.896.908-.052 0-.142.065-.2.145-.058.08-.164.146-.235.146-.072 0-.13.032-.13.072 0 .04-.066.073-.146.073-.08 0-.147-.033-.147-.073 0-.04.033-.072.074-.072.04 0 .073-.066.073-.146 0-.08.032-.145.073-.145.04 0 .073-.066.073-.146 0-.08.033-.145.073-.145.04 0 .073-.066.073-.146 0-.08.033-.145.073-.145.04 0 .073-.066.073-.146 0-.08.033-.145.073-.145.04 0 .073-.058.073-.13 0-.07.066-.176.146-.234.08-.058.146-.148.146-.2 0-.052.107-.206.238-.343.184-.192.299-.248.511-.252l.274-.005v.364zm-9.352.785c0 .07-.066.176-.146.234-.08.058-.146.163-.146.234 0 .071-.033.13-.073.13-.04 0-.073.065-.073.145 0 .08-.033.146-.073.146-.04 0-.074.065-.074.145 0 .08-.033.146-.073.146-.04 0-.073.065-.073.145 0 .08-.033.145-.073.145-.04 0-.073.066-.073.146 0 .08-.033.145-.073.145-.04 0-.073.066-.073.146 0 .08-.033.145-.073.145-.04 0-.073.059-.073.13 0 .071-.066.176-.146.234-.08.058-.146.151-.146.208 0 .056-.071.164-.158.239-.087.075-.137.157-.11.183.026.027.11-.023.184-.11.162-.185.23-.198.23-.044 0 .177.34.47.544.47.103 0 .186-.033.186-.073 0-.04.066-.073.146-.073.08 0 .147-.033.147-.073 0-.04.051-.072.114-.072.148 0 .324-.175.324-.322 0-.063.033-.115.073-.115.04 0 .073-.065.073-.145 0-.08.033-.146.073-.146.04 0 .073-.148.073-.33 0-.254-.041-.372-.18-.51-.18-.18-.404-.238-.404-.105 0 .04.051.073.115.073.16 0 .388.232.268.273-.05.016-.09.125-.09.242 0 .117-.034.212-.074.212-.04 0-.073.065-.073.145 0 .08-.033.146-.073.146-.04 0-.073.05-.073.111 0 .128-.466.616-.588.616-.158 0-.289-.212-.289-.467 0-.143.033-.26.073-.26.04 0 .073-.098.073-.218s.033-.219.073-.219c.04 0 .073-.065.073-.145 0-.08.033-.145.073-.145.04 0 .073-.066.073-.146 0-.08.033-.146.073-.146.04 0 .074-.058.074-.129 0-.071.065-.177.146-.234.08-.058.146-.163.146-.234 0-.072.033-.13.073-.13.04 0 .073-.052.073-.116s.099-.208.22-.32c.12-.112.218-.256.218-.32 0-.081-.067-.117-.219-.117-.161 0-.22.034-.22.13zm8.914.961c0 .242.154.294.334.115.18-.18.128-.333-.115-.333-.195 0-.219.024-.219.218zm1.114.33c-.231.242-.311.47-.164.47.04 0 .073.099.073.219s.033.218.073.218c.04 0 .073.13.073.29 0 .16-.033.292-.073.292-.04 0-.073.065-.073.145 0 .163-.258.208-.313.055-.018-.05-.06-.065-.095-.033-.035.033-.015.088.043.124.057.035.083.087.056.114-.027.027-.108-.01-.18-.082-.093-.092-.105-.138-.04-.16.051-.017.09-.151.09-.309 0-.157.04-.293.092-.311.05-.018.069-.057.04-.087-.067-.072-.424.29-.424.431 0 .062-.033.113-.073.113-.04 0-.073.063-.073.14 0 .076-.041.153-.091.171-.05.018-.065.06-.033.095.033.034.093.014.134-.045.056-.08.083-.084.111-.016.02.05.1.091.177.091.077 0 .14.033.14.073 0 .04.165.073.366.073.346 0 .474-.083.274-.176-.073-.034-.073-.051 0-.085.05-.023.091-.105.091-.182 0-.076.033-.14.073-.14.04 0 .073-.13.073-.29 0-.16-.033-.291-.073-.291-.04 0-.073-.066-.073-.146 0-.08-.033-.145-.073-.145-.112 0-.087-.506.031-.623a.372.372 0 01.22-.104c.063 0 .114-.033.114-.073 0-.152-.265-.053-.493.185zm-8.914.143a.387.387 0 00-.091.215c0 .062-.033.113-.073.113-.04 0-.073.065-.073.145 0 .08-.033.145-.073.145-.04 0-.073.131-.073.291 0 .16-.033.291-.073.291-.04 0-.073.131-.073.291 0 .239.025.291.14.291.076 0 .159.041.182.091.034.073.051.073.085 0a.178.178 0 01.15-.09c.141 0 .465-.328.465-.47 0-.062-.018-.113-.041-.113-.086 0-.25.212-.25.322 0 .066-.063.115-.147.115-.08 0-.146.032-.146.072 0 .04-.033.073-.073.073-.04 0-.073-.13-.073-.29 0-.16.033-.292.073-.292.04 0 .073-.065.073-.145 0-.08.033-.146.073-.146.04 0 .073-.065.073-.145 0-.08.033-.146.073-.146.04 0 .073-.065.073-.145 0-.08.033-.145.073-.145.04 0 .073-.066.073-.146 0-.08.033-.146.073-.146.04 0 .073-.032.073-.072 0-.11-.389-.082-.493.036zm1.096.075c-.09.096-.164.225-.164.286 0 .062-.033.112-.073.112-.04 0-.073.058-.073.13 0 .07-.066.176-.146.234-.151.108-.203.363-.074.363.04 0 .074.066.074.146 0 .08-.033.145-.074.145-.04 0-.073.084-.073.187 0 .21-.15.395-.323.395-.063 0-.115.033-.115.073 0 .04-.099.073-.22.073-.12 0-.218.032-.218.072 0 .04-.1.073-.22.073s-.219.033-.219.073c0 .04-.083.073-.185.073-.29 0-.692.442-.692.76 0 .21.028.258.146.258.08 0 .147.033.147.073 0 .04.131.072.292.072.16 0 .292-.032.292-.072 0-.04.066-.073.146-.073.08 0 .146-.033.146-.073 0-.04.05-.072.113-.072.136 0 .618-.468.618-.6 0-.053.066-.143.146-.2.08-.058.146-.15.146-.204 0-.133.183-.306.324-.306.063 0 .115-.033.115-.073 0-.04.05-.072.111-.072.145 0 .766-.618.766-.762 0-.061-.033-.111-.073-.111-.04 0-.074.05-.074.111 0 .145-.473.616-.618.616-.062 0-.112.033-.112.073 0 .04-.033.073-.073.073-.04 0-.073-.098-.073-.218s.032-.219.073-.219c.04 0 .073-.098.073-.218s.033-.218.073-.218c.04 0 .073-.066.073-.146 0-.08.033-.145.073-.145.04 0 .073-.098.073-.218s.033-.218.073-.218c.04 0 .073-.066.073-.146 0-.08.033-.146.073-.146.04 0 .073-.032.073-.072 0-.133-.253-.066-.42.11zm9.48-.111c0 .04-.05.073-.112.073-.063 0-.194.08-.293.178-.098.098-.18.23-.18.291 0 .062-.032.112-.072.112-.04 0-.073.066-.073.146 0 .08-.033.145-.073.145-.04 0-.073.066-.073.146 0 .08-.033.145-.073.145-.04 0-.073.054-.073.12 0 .064-.072.18-.158.254-.087.075-.137.158-.11.184.026.026.109-.023.184-.11.163-.186.23-.198.23-.042 0 .133.171.322.293.322.046 0 .21-.131.364-.291.155-.16.3-.291.323-.291.024 0 .043.084.043.187 0 .193.148.395.29.395.106 0 .613-.507.56-.56-.024-.023-.139.06-.257.186-.117.125-.233.228-.257.228-.024 0-.044-.13-.044-.29 0-.16.033-.292.073-.292.04 0 .073-.065.073-.145 0-.08.033-.146.073-.146.04 0 .073-.065.073-.145 0-.08.033-.146.073-.146.04 0 .073-.065.073-.145 0-.084-.049-.145-.114-.145-.141 0-.324.172-.324.306 0 .054-.066.145-.146.203-.08.057-.146.147-.146.2 0 .052-.15.242-.33.423-.313.311-.338.322-.457.204-.09-.09-.1-.133-.035-.155.05-.016.09-.125.09-.242 0-.117.034-.212.074-.212.04 0 .073-.05.073-.11 0-.187.778-.909.979-.909.098 0 .193.041.21.091.019.05.058.068.088.04.03-.028.005-.101-.057-.163-.127-.126-.781-.16-.781-.04zm-2.922.218c0 .08-.033.145-.073.145-.04 0-.073.099-.073.219s-.033.218-.073.218c-.04 0-.073.065-.073.145 0 .08-.033.146-.074.146-.04 0-.073.163-.073.364 0 .31.021.363.14.363.078 0 .155.041.173.091.018.05.059.067.091.037.032-.03-.021-.124-.118-.21-.117-.104-.146-.166-.085-.188.05-.018.092-.128.092-.245 0-.117.033-.212.073-.212.04 0 .073-.066.073-.146 0-.08.033-.145.073-.145.04 0 .073-.066.073-.146 0-.08.033-.145.073-.145.04 0 .073-.098.073-.218 0-.17-.032-.218-.146-.218-.097 0-.146.048-.146.145zm.877.364a.073.073 0 00.146 0 .073.073 0 00-.146 0zm-6.722.29a.073.073 0 00.146 0 .073.073 0 00-.146 0zm9.936.067c0 .077-.04.154-.09.172-.051.018-.07.057-.04.088.068.073.277-.14.277-.285 0-.063-.033-.114-.073-.114-.04 0-.074.063-.074.14zm-6.721.554c0 .145-.474.616-.62.616-.06 0-.111.033-.111.073 0 .04-.066.073-.146.073-.08 0-.147.032-.147.072 0 .114-.653.087-.772-.03-.12-.12-.14-.333-.031-.333.04 0 .073-.066.073-.146 0-.097.049-.145.146-.145.08 0 .146-.033.146-.073 0-.04.132-.073.292-.073.161 0 .293-.032.293-.072 0-.04.194-.073.438-.073.345 0 .439.023.439.111zm-4.823.945c0 .092-.959.98-1.058.98-.061 0-.11.033-.11.073 0 .04-.085.073-.189.073-.194 0-.396-.147-.396-.288 0-.121.49-.585.618-.585.062 0 .112-.033.112-.073 0-.04.099-.072.22-.072.12 0 .219-.033.219-.073 0-.04.131-.073.292-.073.16 0 .292.017.292.038z" fill="#E94E6B"/></svg>