<svg width="89" height="72" fill="none" xmlns="http://www.w3.org/2000/svg"><path fill-rule="evenodd" clip-rule="evenodd" d="M44.627.128c0 .08-.85.127-2.295.127-1.445 0-2.295.048-2.295.128 0 .075-.425.128-1.02.128s-1.02.053-1.02.128c0 .073-.382.127-.892.127s-.893.055-.893.128c0 .07-.23.128-.51.128s-.51.057-.51.128c0 .07-.23.127-.51.127s-.51.058-.51.128-.23.128-.51.128-.51.057-.51.128c0 .07-.23.127-.51.127s-.51.058-.51.128-.172.128-.383.128c-.21 0-.382.057-.382.127s-.172.128-.383.128c-.21 0-.382.058-.382.128s-.23.128-.51.128-.51.057-.51.127-.115.128-.255.128-.255.058-.255.128-.115.128-.255.128-.255.057-.255.127-.23.128-.51.128-.51.058-.51.128-.115.128-.256.128c-.14 0-.255.057-.255.127s-.114.128-.255.128c-.14 0-.255.058-.255.128s-.114.127-.255.127c-.14 0-.254.058-.254.128s-.115.128-.256.128c-.14 0-.255.057-.255.128 0 .07-.114.127-.255.127-.14 0-.255.058-.255.128s-.114.128-.255.128c-.14 0-.255.057-.255.128 0 .07-.114.127-.255.127-.14 0-.255.058-.255.128s-.114.128-.255.128c-.14 0-.255.057-.255.128 0 .07-.114.127-.255.127-.14 0-.255.058-.255.128s-.114.128-.255.128c-.14 0-.255.057-.255.127s-.102.128-.227.128c-.124 0-.31.115-.41.256-.101.14-.286.255-.411.255s-.227.058-.227.128-.102.128-.227.128-.31.115-.41.255c-.102.14-.274.256-.383.256-.11 0-.281.115-.382.255-.101.14-.263.256-.36.256-.096 0-.337.172-.533.383-.196.21-.426.383-.51.383-.084 0-.314.172-.51.383-.197.21-.425.383-.508.383-.082 0-.37.23-.64.511s-.552.511-.628.511c-.18 0-5.62 5.449-5.62 5.63 0 .076-.229.36-.51.63-.28.27-.51.558-.51.64 0 .083-.172.312-.382.509-.21.197-.383.437-.383.534 0 .096-.114.259-.255.36-.14.101-.255.263-.255.36 0 .097-.172.337-.382.534-.21.197-.383.45-.383.562 0 .113-.057.204-.127.204s-.128.103-.128.228-.114.31-.255.411c-.14.101-.255.274-.255.383 0 .11-.114.282-.255.384-.14.1-.255.286-.255.411s-.057.227-.127.227-.128.115-.128.256c0 .14-.057.255-.127.255s-.128.115-.128.256c0 .14-.057.255-.127.255s-.128.115-.128.256c0 .14-.057.255-.127.255s-.128.115-.128.256c0 .14-.057.255-.127.255s-.128.115-.128.255-.057.256-.127.256-.128.115-.128.255-.057.256-.127.256-.128.115-.128.255-.057.256-.127.256-.128.115-.128.255-.057.256-.127.256-.128.115-.128.255-.057.256-.127.256-.128.172-.128.383c0 .21-.057.383-.127.383s-.128.115-.128.256c0 .14-.057.255-.127.255s-.128.172-.128.383c0 .21-.057.383-.127.383s-.128.115-.128.256c0 .14-.057.255-.127.255s-.128.173-.128.383c0 .211-.057.384-.127.384s-.128.23-.128.51c0 .282-.057.512-.127.512s-.128.172-.128.383c0 .21-.057.383-.127.383s-.128.172-.128.383c0 .21-.057.383-.127.383s-.128.23-.128.511-.057.511-.127.511-.128.23-.128.511-.057.511-.127.511-.128.287-.128.639c0 .351-.057.639-.127.639-.071 0-.128.34-.128.766s-.057.766-.127.766c-.075 0-.128.426-.128 1.022 0 .596-.053 1.022-.127 1.022-.078 0-.128.596-.128 1.533 0 .936-.05 1.533-.127 1.533-.078 0-.128.596-.128 1.533 0 .936.05 1.532.128 1.532s.127.681.127 1.788c0 1.108.049 1.789.128 1.789.074 0 .127.426.127 1.022 0 .596.053 1.022.128 1.022.07 0 .127.287.127.638 0 .351.057.639.128.639.07 0 .127.287.127.639 0 .35.057.638.128.638.07 0 .127.288.127.639 0 .351.057.639.128.639.07 0 .127.172.127.383 0 .21.057.383.128.383.07 0 .127.23.127.51 0 .282.057.512.128.512.07 0 .127.172.127.383 0 .21.057.383.128.383.07 0 .127.23.127.511s.058.511.128.511.127.115.127.256c0 .14.058.255.128.255s.127.172.127.383c0 .211.058.384.128.384s.127.172.127.383c0 .21.058.383.128.383s.127.115.127.255.058.256.128.256.127.172.127.383c0 .21.058.383.128.383s.127.115.127.256c0 .14.058.255.128.255s.127.115.127.256c0 .14.058.255.128.255s.127.115.127.256c0 .14.058.255.128.255s.127.115.127.256c0 .14.058.255.128.255s.127.115.127.255.058.256.128.256.127.115.127.255.058.256.128.256.127.115.127.255.058.256.128.256.127.115.127.255.058.256.128.256.127.102.127.227.115.31.255.411c.14.102.255.287.255.412s.058.227.128.227.127.102.127.227.115.31.255.412c.14.101.255.274.255.383 0 .11.115.282.255.383.14.101.255.274.255.383 0 .11.115.282.255.384.14.1.255.273.255.383 0 .11.115.282.255.383.14.101.255.26.255.352 0 .209.882 1.106.986 1.003.041-.042-.048-.184-.2-.315-.152-.132-.275-.31-.275-.397 0-.087-.173-.319-.383-.515-.21-.197-.383-.438-.383-.534 0-.097-.114-.26-.255-.36-.14-.102-.255-.287-.255-.412s-.057-.227-.127-.227-.128-.115-.128-.256c0-.14-.057-.255-.127-.255s-.128-.102-.128-.227-.114-.31-.255-.412c-.14-.101-.255-.286-.255-.411s-.057-.227-.127-.227-.128-.115-.128-.256c0-.14-.057-.255-.127-.255s-.128-.115-.128-.256c0-.14-.057-.255-.127-.255s-.128-.115-.128-.256c0-.14-.057-.255-.127-.255s-.128-.115-.128-.256c0-.14-.057-.255-.127-.255s-.128-.115-.128-.256c0-.14-.057-.255-.127-.255s-.128-.172-.128-.383c0-.211-.057-.383-.127-.383s-.128-.116-.128-.256-.057-.255-.127-.255-.128-.115-.128-.256c0-.14-.057-.255-.127-.255s-.128-.173-.128-.384c0-.21-.057-.383-.127-.383s-.128-.172-.128-.383c0-.21-.057-.383-.127-.383s-.128-.173-.128-.383c0-.211-.057-.384-.127-.384s-.128-.114-.128-.255c0-.14-.057-.255-.127-.255s-.128-.173-.128-.384c0-.21-.057-.383-.127-.383s-.128-.23-.128-.51c0-.282-.057-.512-.127-.512s-.128-.23-.128-.51c0-.282-.057-.512-.127-.512s-.128-.287-.128-.638c0-.352-.057-.639-.127-.639s-.128-.23-.128-.51c0-.282-.057-.512-.127-.512s-.128-.287-.128-.639c0-.35-.057-.638-.127-.638-.075 0-.128-.426-.128-1.022 0-.596-.053-1.022-.127-1.022-.078 0-.128-.553-.128-1.405s-.05-1.405-.127-1.405c-.081 0-.128-.894-.128-2.427s.047-2.427.128-2.427c.077 0 .127-.553.127-1.405s.05-1.405.128-1.405c.072 0 .127-.383.127-.894s.055-.894.128-.894c.07 0 .127-.288.127-.64 0-.35.058-.638.128-.638s.127-.287.127-.639c0-.35.058-.638.128-.638s.127-.23.127-.511.058-.511.128-.511.127-.23.127-.51c0-.282.058-.512.128-.512s.127-.23.127-.51c0-.282.058-.512.128-.512s.127-.172.127-.383c0-.21.058-.383.128-.383s.127-.115.127-.256c0-.14.058-.255.128-.255s.127-.172.127-.383c0-.211.058-.384.128-.384s.127-.172.127-.383c0-.21.058-.383.128-.383s.127-.172.127-.383c0-.21.058-.383.128-.383s.127-.115.127-.256c0-.14.058-.255.128-.255s.127-.115.127-.256c0-.14.058-.255.128-.255s.127-.115.127-.256c0-.14.058-.255.128-.255s.127-.172.127-.383c0-.211.058-.383.128-.383s.127-.116.127-.256.058-.255.128-.255.127-.103.127-.228.115-.31.255-.411a.705.705 0 00.255-.511c0-.18.115-.41.255-.511.14-.101.255-.286.255-.411s.058-.228.128-.228.127-.115.127-.255.058-.256.128-.256.127-.102.127-.227.115-.31.255-.411c.14-.102.255-.274.255-.383 0-.11.115-.282.255-.384.14-.101.255-.286.255-.411s.058-.227.128-.227.127-.092.127-.205c0-.112.173-.365.383-.562.21-.197.383-.426.383-.51 0-.085.172-.315.382-.512.21-.197.383-.437.383-.534 0-.096.114-.259.255-.36.14-.101.255-.26.255-.354 0-.094.344-.51.765-.923.42-.414.765-.814.765-.888 0-.18 3.91-4.094 4.089-4.094.076 0 .359-.23.628-.51.27-.282.557-.512.638-.512.081 0 .368-.23.637-.51.27-.281.558-.511.64-.511.083 0 .312-.173.508-.384.197-.21.45-.383.561-.383.113 0 .204-.057.204-.128 0-.07.092-.127.204-.127.112 0 .365-.173.561-.383.197-.211.45-.384.561-.384.113 0 .204-.057.204-.127s.115-.128.255-.128.255-.058.255-.128.102-.128.227-.128.31-.115.41-.255c.102-.14.287-.256.412-.256.124 0 .226-.057.226-.127s.102-.128.227-.128.31-.115.41-.256c.102-.14.287-.255.412-.255.124 0 .226-.058.226-.128s.115-.127.255-.127.255-.058.255-.128.115-.128.255-.128.256-.057.256-.128c0-.07.114-.127.255-.127.14 0 .255-.058.255-.128s.114-.128.255-.128c.14 0 .255-.057.255-.128 0-.07.172-.127.382-.127.21 0 .383-.058.383-.128s.172-.128.382-.128c.21 0 .383-.057.383-.128 0-.07.114-.127.255-.127.14 0 .255-.058.255-.128s.114-.128.255-.128c.14 0 .255-.057.255-.128 0-.07.172-.127.382-.127.21 0 .383-.058.383-.128s.172-.128.382-.128c.21 0 .383-.057.383-.127s.172-.128.382-.128c.21 0 .383-.058.383-.128s.172-.128.382-.128c.21 0 .383-.057.383-.127s.172-.128.382-.128c.21 0 .383-.058.383-.128s.287-.128.637-.128c.351 0 .638-.057.638-.127s.23-.128.51-.128.51-.058.51-.128.23-.128.51-.128.51-.057.51-.127c0-.071.34-.128.765-.128s.765-.057.765-.128c0-.073.383-.127.893-.127s.892-.055.892-.128c0-.079.638-.128 1.658-.128s1.657-.05 1.657-.128c0-.079.68-.127 1.786-.127 1.105 0 1.785.048 1.785.127s.637.128 1.657.128 1.658.05 1.658.128c0 .073.382.128.892.128s.893.054.893.127c0 .071.34.128.765.128s.765.057.765.128c0 .07.23.127.51.127s.51.058.51.128.287.128.638.128c.35 0 .637.057.637.128 0 .07.172.127.383.127.21 0 .382.058.382.128s.23.128.51.128.51.057.51.128c0 .07.172.127.383.127.21 0 .382.058.382.128s.172.128.383.128c.21 0 .382.057.382.128 0 .07.173.127.383.127.21 0 .382.058.382.128s.172.128.383.128c.21 0 .382.057.382.127s.115.128.255.128.255.058.255.128.173.128.383.128c.21 0 .383.057.383.127s.114.128.255.128c.14 0 .255.058.255.128s.114.128.255.128c.14 0 .255.057.255.127s.114.128.255.128c.14 0 .255.058.255.128s.114.128.255.128c.14 0 .255.057.255.127s.172.128.382.128c.21 0 .383.058.383.128s.102.128.227.128c.124 0 .31.114.41.255.101.14.286.255.41.255.126 0 .228.058.228.128s.114.128.255.128c.14 0 .255.057.255.128 0 .07.102.127.227.127.124 0 .31.115.41.256.101.14.286.255.411.255s.227.058.227.128.091.128.204.128c.112 0 .364.172.56.383.197.21.45.383.562.383.112 0 .204.058.204.128s.102.128.227.128.31.115.41.255c.102.14.263.256.36.256.096 0 .337.172.533.383.197.21.425.383.507.383.083 0 .371.23.64.51.27.282.556.512.635.512.08 0 .483.345.896.766.413.422.812.767.886.767.178 0 3.066 2.893 3.066 3.071 0 .075.345.475.765.888.421.414.765.82.765.9 0 .081.173.309.383.506.21.196.383.426.383.51 0 .085.172.314.382.511.21.197.383.438.383.534 0 .097.114.26.255.36.14.102.255.274.255.384 0 .11.114.282.255.383.14.101.255.274.255.383 0 .11.114.282.255.383.14.102.255.287.255.412s.057.227.127.227.128.102.128.227.114.31.255.412c.14.101.255.286.255.411s.057.227.127.227.128.115.128.256c0 .14.057.255.127.255s.128.115.128.256c0 .14.057.255.127.255s.128.103.128.228.115.31.255.41c.15.11.255.332.255.54 0 .195.057.355.127.355s.128.115.128.256c0 .14.057.255.127.255s.128.115.128.255.057.256.127.256.128.115.128.255.057.256.127.256.128.172.128.383c0 .21.057.383.127.383s.128.115.128.256c0 .14.057.255.127.255s.128.173.128.383c0 .211.057.384.127.384s.128.115.128.255.057.255.127.255.128.173.128.384c0 .21.057.383.127.383s.128.172.128.383c0 .21.057.383.127.383s.128.173.128.383c0 .211.057.384.127.384s.128.23.128.51c0 .282.057.512.127.512s.128.23.128.51c0 .282.057.511.127.511s.128.173.128.384c0 .21.057.383.127.383.071 0 .128.34.128.766s.056.767.127.767c.07 0 .128.287.128.638 0 .352.057.639.127.639.073 0 .128.383.128.894s.055.894.127.894c.079 0 .128.639.128 1.66 0 1.023.05 1.661.128 1.661s.127.682.127 1.789c0 1.107-.049 1.788-.127 1.788-.076 0-.128.468-.128 1.15 0 .68.052 1.15.128 1.15.074 0 .127-.427.127-1.023 0-.596.053-1.022.127-1.022.083 0 .128-1.447.128-4.087 0-2.64-.045-4.088-.127-4.088-.076 0-.128-.468-.128-1.15 0-.68-.052-1.149-.127-1.149-.071 0-.128-.34-.128-.766s-.057-.767-.127-.767-.128-.287-.128-.638c0-.352-.057-.639-.127-.639s-.128-.287-.128-.639c0-.35-.057-.638-.128-.638-.07 0-.127-.23-.127-.511s-.057-.511-.128-.511c-.07 0-.127-.173-.127-.383 0-.211-.058-.384-.128-.384s-.127-.23-.127-.51c0-.282-.058-.511-.128-.511s-.127-.173-.127-.384c0-.21-.057-.383-.128-.383-.07 0-.127-.172-.127-.383 0-.21-.058-.383-.128-.383s-.127-.115-.127-.256c0-.14-.058-.255-.128-.255s-.127-.173-.127-.383c0-.211-.057-.384-.128-.384-.07 0-.127-.172-.127-.383 0-.21-.058-.383-.128-.383s-.127-.115-.127-.255-.058-.256-.128-.256-.127-.115-.127-.255-.058-.256-.128-.256-.127-.115-.127-.255-.058-.256-.128-.256-.127-.172-.127-.383c0-.21-.058-.383-.128-.383s-.127-.115-.127-.256c0-.14-.058-.255-.128-.255s-.127-.115-.127-.256c0-.14-.058-.255-.128-.255s-.127-.115-.127-.255c0-.141-.058-.256-.128-.256s-.127-.102-.127-.227-.115-.31-.255-.412c-.14-.101-.255-.286-.255-.411s-.058-.227-.128-.227-.127-.115-.127-.256c0-.14-.058-.255-.128-.255s-.127-.103-.127-.227c0-.126-.115-.31-.255-.412-.14-.101-.255-.286-.255-.411s-.058-.228-.128-.228-.127-.102-.127-.227-.115-.31-.255-.411c-.14-.102-.255-.264-.255-.36 0-.097-.173-.338-.383-.534-.21-.197-.382-.438-.382-.534 0-.097-.115-.26-.255-.36-.14-.102-.255-.264-.255-.36 0-.098-.173-.338-.383-.535-.21-.197-.383-.424-.383-.506 0-.082-.286-.429-.637-.771-.35-.342-.638-.684-.638-.759 0-.179-4.419-4.606-4.597-4.606-.075 0-.416-.287-.758-.638-.341-.352-.688-.64-.77-.64-.08 0-.308-.172-.505-.382-.197-.211-.436-.384-.533-.384-.097 0-.258-.115-.36-.255-.1-.14-.262-.256-.36-.256-.096 0-.336-.172-.532-.383-.197-.21-.436-.383-.533-.383-.097 0-.258-.115-.36-.255-.1-.14-.285-.256-.41-.256s-.227-.057-.227-.128c0-.07-.102-.127-.227-.127s-.31-.115-.41-.256c-.102-.14-.287-.255-.411-.255-.125 0-.227-.058-.227-.128s-.102-.128-.227-.128-.31-.115-.41-.255c-.102-.14-.287-.256-.412-.256-.124 0-.226-.057-.226-.127s-.115-.128-.255-.128-.255-.058-.255-.128-.115-.128-.255-.128-.255-.057-.255-.127-.115-.128-.255-.128-.255-.058-.255-.128-.115-.128-.255-.128-.255-.057-.255-.127-.115-.128-.255-.128-.255-.058-.255-.128-.115-.128-.255-.128-.255-.057-.255-.127-.173-.128-.383-.128c-.21 0-.383-.057-.383-.128 0-.07-.114-.127-.255-.127-.14 0-.255-.058-.255-.128s-.172-.128-.382-.128c-.21 0-.383-.057-.383-.128 0-.07-.114-.127-.255-.127-.14 0-.255-.058-.255-.128s-.172-.128-.382-.128c-.21 0-.383-.057-.383-.128 0-.07-.172-.127-.382-.127-.21 0-.383-.058-.383-.128s-.172-.128-.382-.128c-.21 0-.383-.057-.383-.128 0-.07-.172-.127-.382-.127-.21 0-.383-.058-.383-.128s-.23-.128-.51-.128-.51-.057-.51-.127-.23-.128-.51-.128-.51-.058-.51-.128-.23-.128-.51-.128-.51-.057-.51-.127-.23-.128-.51-.128-.51-.058-.51-.128c0-.073-.383-.128-.893-.128s-.892-.054-.892-.127c0-.075-.425-.128-1.02-.128s-1.02-.053-1.02-.128c0-.08-.808-.128-2.168-.128S44.883.208 44.883.128A.128.128 0 0044.755 0a.128.128 0 00-.128.128zM23.971 28.996c0 .07-.172.127-.382.127-.21 0-.383.058-.383.128s-.102.128-.226.128c-.125 0-.31.115-.411.255-.101.14-.258.256-.349.256-.232 0-2.329 2.126-2.329 2.361 0 .107-.057.194-.127.194s-.128.102-.128.227-.115.31-.255.411c-.14.101-.255.287-.255.412s-.057.227-.127.227-.128.115-.128.255-.057.256-.127.256-.128.115-.128.255-.057.256-.128.256c-.07 0-.127.115-.127.255s-.057.256-.128.256c-.07 0-.127.115-.127.255s-.057.256-.128.256c-.07 0-.127.114-.127.255 0 .14-.057.255-.127.255s-.128.115-.128.256c0 .14-.057.255-.128.255-.07 0-.127.115-.127.256 0 .14-.057.255-.128.255-.07 0-.127.115-.127.256 0 .14-.057.255-.127.255s-.128.173-.128.384c0 .21-.057.383-.128.383-.07 0-.127.115-.127.255s-.057.256-.128.256c-.07 0-.127.115-.127.255 0 .24-.085.256-1.403.256-.85 0-1.402-.05-1.402-.128 0-.07-.23-.128-.51-.128s-.51-.057-.51-.128c0-.07-.088-.127-.195-.127-.253 0-1.335-1.085-1.335-1.338 0-.107-.058-.195-.128-.195-.074 0-.127-.426-.127-1.022 0-.596.053-1.022.127-1.022.07 0 .128-.115.128-.255s.057-.256.127-.256.128-.087.128-.194c0-.338 1.613-1.85 1.974-1.85.176 0 .32-.057.32-.127s.173-.128.383-.128c.21 0 .383-.058.383-.128s.262-.128.583-.128c.335 0 .66-.077.765-.182.265-.266.227-.329-.2-.329-.211 0-.383.058-.383.128s-.287.128-.638.128c-.35 0-.637.057-.637.128 0 .07-.172.127-.383.127-.21 0-.382.058-.382.128s-.172.128-.383.128c-.21 0-.382.057-.382.128 0 .07-.102.127-.227.127s-.31.115-.41.256c-.102.14-.26.255-.35.255-.233 0-1.563 1.358-1.563 1.594 0 .107-.058.195-.128.195-.073 0-.127.383-.127.894 0 .51.054.894.127.894.07 0 .128.115.128.255s.057.256.127.256.128.088.128.196c0 .239.819 1.081 1.051 1.081.092 0 .25.115.351.256.108.15.33.255.538.255.195 0 .355.058.355.128s.114.128.255.128c.14 0 .255.057.255.127s.287.128.637.128c.35 0 .638.057.638.128 0 .073.382.127.892.127s.893.055.893.128c0 .07-.057.128-.128.128-.07 0-.127.102-.127.227s-.115.31-.255.412c-.14.1-.255.286-.255.411s-.057.227-.128.227c-.07 0-.127.103-.127.227 0 .126-.115.31-.255.412-.14.101-.255.274-.255.383 0 .11-.115.282-.255.383-.14.102-.255.26-.255.354 0 .345-.611.796-1.078.796-.249 0-.452-.057-.452-.128 0-.077-.553-.127-1.403-.127s-1.402.05-1.402.127c0 .075-.425.128-1.02.128-.596 0-1.02.053-1.02.128 0 .07-.23.128-.51.128-.281 0-.51.057-.51.127s-.173.128-.383.128c-.21 0-.383.057-.383.128 0 .07-.114.127-.255.127-.14 0-.255.058-.255.128s-.114.128-.255.128c-.14 0-.255.057-.255.128 0 .07-.088.127-.197.127-.255 0-.823.57-.823.825 0 .108-.057.197-.127.197s-.128.318-.128.707c0 .636.044.751.442 1.15.243.243.53.442.638.442.107 0 .195.058.195.128s.115.128.255.128.255.057.255.128c0 .076.51.127 1.275.127.765 0 1.275-.05 1.275-.127 0-.07.23-.128.51-.128.281 0 .51-.058.51-.128s.115-.128.255-.128.256-.057.256-.127.114-.128.255-.128c.14 0 .255-.058.255-.128s.114-.128.255-.128c.14 0 .255-.057.255-.127s.09-.128.2-.128c.112 0 .423-.23.692-.51.27-.282.555-.512.635-.512.08 0 .482-.345.895-.766.74-.755.762-.767 1.46-.767.39 0 .708.058.708.128 0 .071.34.128.765.128s.765.056.765.127c0 .07.23.128.51.128s.51.058.51.128.23.128.51.128.51.057.51.127.172.128.383.128c.21 0 .382.058.382.128s.172.128.383.128c.21 0 .382.057.382.127s.115.128.255.128.255.058.255.128.115.128.255.128.255.057.255.127.115.128.255.128.255.058.255.128.092.127.204.127c.112 0 .365.173.561.384.197.21.425.383.507.383.202 0 .513.325.513.538 0 .094.115.255.255.356.15.108.255.33.255.54 0 .194.058.354.128.354.073 0 .127.383.127.894s-.054.895-.127.895c-.07 0-.128.114-.128.255 0 .14-.057.255-.127.255s-.128.115-.128.256c0 .17.085.255.255.255.14 0 .255-.057.255-.127s.09-.128.2-.128c.302 0 .565-.324.565-.694 0-.18.058-.328.128-.328s.127-.23.127-.51c0-.282-.057-.512-.127-.512s-.128-.172-.128-.383c0-.21-.057-.383-.127-.383s-.128-.103-.128-.228-.114-.31-.255-.41c-.14-.102-.255-.26-.255-.352 0-.217-1.09-1.31-1.307-1.31-.091 0-.25-.114-.35-.255-.101-.14-.273-.255-.383-.255-.109 0-.281-.115-.382-.256-.101-.14-.286-.255-.411-.255s-.227-.058-.227-.128-.172-.128-.382-.128c-.21 0-.383-.057-.383-.127s-.115-.128-.255-.128-.255-.058-.255-.128-.115-.128-.255-.128-.255-.057-.255-.128c0-.07-.172-.127-.382-.127-.21 0-.383-.058-.383-.128s-.115-.128-.255-.128-.255-.057-.255-.127-.23-.128-.51-.128-.51-.058-.51-.128-.172-.128-.383-.128c-.21 0-.382-.057-.382-.127s-.23-.128-.51-.128-.51-.058-.51-.128-.172-.127-.383-.127c-.265 0-.382-.063-.382-.205 0-.112.172-.365.382-.562.21-.197.383-.45.383-.562 0-.112.057-.204.127-.204s.128-.103.128-.228.115-.31.255-.411c.14-.101.255-.286.255-.412 0-.124.057-.227.127-.227s.128-.115.128-.255.057-.256.127-.256.128-.088.128-.195c0-.108.199-.396.442-.64.374-.374.53-.442 1.02-.442.318 0 .578-.058.578-.128s.172-.127.383-.127c.21 0 .382-.058.382-.128s.172-.128.383-.128c.21 0 .382-.057.382-.128 0-.07.115-.127.255-.127s.255-.058.255-.128.115-.128.255-.128.255-.057.255-.128c0-.07.115-.127.255-.127s.255-.058.255-.128.115-.128.255-.128.255-.057.255-.127.102-.128.227-.128.31-.115.41-.256c.102-.14.259-.255.349-.255.09 0 .824-.66 1.63-1.468.805-.807 1.465-1.541 1.465-1.632 0-.09.114-.248.255-.349.14-.101.255-.286.255-.411s.057-.228.127-.228.127-.115.127-.255.058-.256.128-.256.128-.172.128-.383c0-.21.057-.383.127-.383.075 0 .128-.448.128-1.09 0-1.073-.007-1.097-.442-1.533-.244-.243-.53-.443-.638-.443-.108 0-.195-.057-.195-.127 0-.075-.425-.128-1.02-.128-.596 0-1.02.053-1.02.128zm1.53 1.021c0 .07.09.128.2.128.405 0 .566.341.566 1.205 0 .474-.056.839-.128.839-.07 0-.127.172-.127.383 0 .21-.058.383-.128.383s-.128.115-.128.256c0 .14-.057.255-.127.255s-.128.103-.128.228-.114.31-.255.411c-.14.101-.255.258-.255.349 0 .215-2.624 2.844-2.839 2.844-.09 0-.247.115-.348.256-.101.14-.286.255-.411.255s-.227.058-.227.128-.115.128-.255.128-.255.057-.255.128c0 .07-.115.127-.255.127s-.255.058-.255.128-.115.128-.255.128-.255.057-.255.127-.172.128-.382.128c-.21 0-.383.058-.383.128s-.172.128-.383.128c-.21 0-.382.057-.382.127s-.172.128-.383.128c-.21 0-.382-.057-.382-.128 0-.07.057-.127.127-.127s.128-.115.128-.256c0-.14.057-.255.128-.255.07 0 .127-.103.127-.228s.115-.31.255-.411c.14-.101.255-.286.255-.411s.057-.228.127-.228.128-.102.128-.227.115-.31.255-.411c.14-.102.255-.287.255-.412s.057-.227.128-.227c.07 0 .127-.102.127-.227s.115-.31.255-.412c.14-.101.255-.263.255-.36 0-.097.172-.337.383-.534.21-.197.382-.427.382-.51 0-.085.172-.315.383-.512.21-.197.382-.422.382-.5 0-.2 1.872-2.054 2.074-2.054.09 0 .248-.115.349-.256.101-.14.286-.255.41-.255.125 0 .227-.058.227-.128s.172-.128.383-.128c.21 0 .382-.057.382-.128a.128.128 0 01.255 0zm21.326.064c-.088.1-.16.385-.16.634 0 .248-.057.452-.127.452-.075 0-.127.468-.127 1.15 0 .68.052 1.15.127 1.15.07 0 .128.287.128.638 0 .351.057.639.127.639s.128.115.128.255c0 .17-.085.256-.255.256-.15 0-.255.085-.255.204 0 .112-.172.365-.383.562-.21.197-.382.45-.382.562 0 .113-.058.204-.128.204s-.127.115-.127.256c0 .14-.058.255-.128.255s-.127.115-.127.256c0 .14-.058.255-.128.255s-.127.115-.127.256c0 .14-.058.255-.128.255s-.128.115-.128.256c0 .14-.057.255-.127.255s-.127.173-.127.383c0 .211-.058.384-.128.384s-.127.23-.127.51c0 .282-.058.511-.128.511-.075 0-.128.46-.128 1.122 0 .975-.033 1.145-.255 1.305-.14.102-.255.287-.255.412s-.057.227-.127.227-.128.092-.128.204c0 .113-.172.366-.382.563-.21.196-.383.423-.383.504 0 .2-.587.773-.794.773-.093 0-.252.115-.353.255a.696.696 0 01-.538.256c-.195 0-.355.057-.355.127s-.287.128-.637.128c-.35 0-.638-.057-.638-.127s-.115-.128-.255-.128c-.17 0-.255-.086-.255-.256 0-.14-.057-.255-.127-.255s-.128-.23-.128-.511.057-.511.128-.511c.07 0 .127-.23.127-.511 0-.483.022-.51.383-.51.21 0 .382-.058.382-.129 0-.07.23-.127.51-.127s.51-.058.51-.128.172-.128.383-.128c.21 0 .382-.057.382-.128 0-.07.115-.127.255-.127s.255-.058.255-.128.088-.128.194-.128c.107 0 .509-.315.893-.7.384-.384.698-.787.698-.894 0-.107.058-.194.128-.194.196 0 .151-.889-.055-1.095-.1-.1-.272-.182-.382-.182-.11 0-.2-.058-.2-.128 0-.071-.34-.128-.766-.128-.425 0-.765.057-.765.128 0 .07-.172.128-.382.128-.21 0-.383.057-.383.127s-.102.128-.227.128c-.124 0-.31.115-.41.255-.101.141-.259.256-.35.256-.217 0-1.308 1.093-1.308 1.31 0 .091-.115.25-.255.35-.14.102-.255.287-.255.412s-.057.227-.127.227-.128.115-.128.256c0 .14-.057.255-.127.255s-.128.115-.128.256c0 .14-.057.255-.127.255-.075 0-.128.426-.128 1.022 0 .596.053 1.022.128 1.022.07 0 .127.09.127.2 0 .259.307.566.565.566.11 0 .2.058.2.128s.115.128.255.128.255.057.255.127c0 .073.383.128.893.128s.892-.055.892-.128c0-.07.172-.127.383-.127.21 0 .382-.058.382-.128s.087-.128.194-.128c.236 0 1.846-1.589 1.846-1.821 0-.091.115-.249.255-.35.14-.102.255-.287.255-.412 0-.275.087-.286.328-.044.1.1.182.387.182.638s.058.456.128.456.128.103.128.228.114.31.255.411c.14.101.255.259.255.35 0 .217 1.346 1.566 1.563 1.566.09 0 .248.115.35.255.1.141.285.256.41.256.124 0 .227.058.227.128s.172.127.382.127c.21 0 .383.058.383.128s.23.128.51.128.51.057.51.128c0 .07.287.127.637.127.35 0 .638.058.638.128 0 .078.552.128 1.402.128.85 0 1.403-.05 1.403-.128 0-.07.287-.128.637-.128.351 0 .638-.057.638-.127s.23-.128.51-.128.51-.058.51-.128.172-.128.383-.128c.21 0 .382-.057.382-.127s.115-.128.255-.128.255-.057.255-.128c0-.07.115-.127.255-.127s.255-.058.255-.128.115-.128.255-.128.255-.057.255-.128c0-.07.092-.127.204-.127.112 0 .365-.173.561-.384.197-.21.423-.383.502-.383.186 0 1.028-.841 1.028-1.026 0-.147.31-.507.438-.507.04 0 .072.173.072.384 0 .21.058.383.128.383s.127.089.127.197c0 .256.568.825.824.825.108 0 .197.057.197.127s.114.128.255.128c.14 0 .255-.057.255-.128 0-.07.114-.127.255-.127.14 0 .255-.058.255-.128s.114-.128.255-.128c.14 0 .255-.057.255-.127s.087-.128.194-.128c.222 0 1.336-1.07 1.336-1.283 0-.147.31-.505.437-.505.148 0 .067 1.003-.087 1.075-.127.06-.127.089 0 .148.088.042.16.16.16.262 0 .247.573.814.823.814.108 0 .197.057.197.127s.115.128.255.128.255-.057.255-.128c0-.07.114-.127.255-.127.14 0 .255-.058.255-.128s.087-.128.194-.128c.218 0 1.59-1.325 1.59-1.536 0-.204.64-.805.742-.695.048.052.016.12-.072.152-.087.031-.16.167-.16.302 0 .134-.056.244-.127.244-.07 0-.127.115-.127.256 0 .14-.058.255-.128.255s-.127.115-.127.256c0 .14-.058.255-.128.255s-.127.173-.127.383c0 .361.03.384.5.384.274 0 .532.072.573.16.06.127.09.127.149 0 .04-.088.184-.16.319-.16.274 0 .328-.195.085-.31-.128-.059-.128-.089 0-.148.095-.045.159-.325.159-.703 0-.345.057-.628.127-.628s.128-.172.128-.383c0-.21.057-.383.127-.383s.128-.092.128-.204c0-.112.172-.366.383-.562.21-.197.382-.45.382-.563 0-.112.09-.204.2-.204.11 0 .478-.287.82-.638.342-.352.71-.64.82-.64.11 0 .2-.057.2-.127s.115-.128.255-.128.255-.057.255-.127.115-.128.255-.128.255-.058.255-.128.263-.128.583-.128c1.025 0 1.25.6.505 1.346-.243.243-.53.443-.637.443-.108 0-.196.057-.196.127s-.225.128-.5.128c-.28 0-.527.07-.563.16-.049.12-.1.113-.212-.032-.11-.145-.163-.153-.211-.032-.036.088-.175.16-.31.16-.149 0-.244.088-.244.227 0 .125-.115.31-.255.411a.7.7 0 00-.255.529c0 .19-.072.378-.16.419-.127.06-.127.09 0 .149.088.04.16.3.16.574 0 .276.058.5.128.5s.127.091.127.201c0 .247.303.566.537.566.094 0 .255.115.356.256.156.218.33.255 1.175.255.577 0 .992-.053.992-.128 0-.07.115-.127.255-.127s.255-.058.255-.128.09-.128.199-.128c.109 0 .536-.345.949-.766.413-.422.783-.767.822-.767.039 0 .07.115.07.256 0 .14.058.255.128.255s.127.089.127.196c0 .322.848 1.082 1.208 1.082.177 0 .323.057.323.127 0 .071.34.128.765.128s.765-.057.765-.128c0-.07.172-.127.382-.127.21 0 .383-.058.383-.128s.087-.128.193-.128c.252 0 2.102-1.853 2.102-2.105 0-.107.057-.194.127-.194s.128-.115.128-.255c0-.141.057-.256.127-.256s.128-.115.128-.255.057-.256.127-.256.128-.115.128-.255-.033-.256-.073-.256c-.14 0-.437.366-.437.538 0 .095-.115.255-.255.356-.14.102-.255.274-.255.383 0 .11-.115.282-.255.384-.14.101-.255.259-.255.35 0 .233-1.099 1.31-1.336 1.31-.107 0-.194.058-.194.128s-.115.128-.255.128-.255.057-.255.127-.319.128-.707.128c-.581 0-.763-.056-1.02-.313-.284-.284-.314-.417-.314-1.406v-1.09h.383c.21 0 .383-.058.383-.129 0-.07.23-.127.51-.127s.51-.058.51-.128.172-.128.382-.128c.21 0 .383-.057.383-.128 0-.07.114-.127.255-.127.14 0 .255-.058.255-.128s.087-.128.194-.128c.252 0 1.59-1.34 1.59-1.594 0-.107.058-.194.128-.194.196 0 .152-.889-.054-1.095-.1-.1-.273-.182-.383-.182-.11 0-.2-.058-.2-.128 0-.071-.34-.128-.765-.128s-.765.057-.765.128c0 .07-.172.128-.383.128-.21 0-.382.057-.382.127s-.092.128-.204.128c-.112 0-.365.172-.561.383-.197.211-.423.383-.504.383-.2 0-.772.59-.772.797 0 .093-.114.252-.254.353-.14.101-.255.274-.255.383 0 .11-.115.282-.255.383-.14.102-.255.287-.255.412s-.058.227-.128.227-.128.115-.128.256c0 .14-.057.255-.127.255s-.128.092-.128.204c0 .113-.172.366-.382.563-.21.196-.383.422-.383.502 0 .215-.854 1.03-1.08 1.03-.107 0-.195.058-.195.128s-.114.128-.255.128c-.14 0-.255.057-.255.127s-.114.128-.255.128c-.14 0-.255-.057-.255-.127s-.146-.128-.324-.128c-.358 0-.95-.514-.95-.825 0-.108-.058-.197-.128-.197-.072 0-.128-.365-.128-.84 0-.863.16-1.204.565-1.204.11 0 .2-.057.2-.128 0-.07.23-.127.51-.127s.51-.058.51-.128.115-.128.255-.128.255-.057.255-.128c0-.07.115-.127.255-.127s.255-.058.255-.128.089-.128.197-.128c.255 0 .823-.569.823-.824 0-.109.058-.198.128-.198s.127-.115.127-.255.058-.256.128-.256c.234 0 .131-.39-.186-.708-.268-.269-.431-.313-1.147-.313-.472 0-.835.055-.835.127 0 .07-.172.128-.382.128-.21 0-.383.057-.383.128 0 .07-.102.127-.227.127-.124 0-.31.116-.41.256-.101.14-.286.255-.411.255s-.227.058-.227.128-.09.128-.198.128c-.11 0-.536.345-.95.766-.412.422-.782.767-.821.767-.04 0-.07-.115-.07-.256 0-.14.056-.255.127-.255.07 0 .127-.115.127-.256 0-.14.057-.255.128-.255.07 0 .127-.103.127-.227 0-.126.115-.31.255-.412.14-.101.255-.274.255-.383 0-.11.115-.282.255-.383.14-.102.255-.287.255-.412s.058-.227.128-.227.127-.092.127-.204c0-.112.172-.365.383-.562.21-.197.382-.438.382-.534 0-.097.115-.26.255-.36.14-.102.255-.263.255-.358 0-.095.23-.394.51-.664s.51-.556.51-.635c0-.08.402-.54.893-1.026.49-.485.892-.913.892-.952 0-.038-.114-.07-.255-.07-.14 0-.255-.057-.255-.127s-.172-.128-.382-.128c-.21 0-.383.057-.383.127s-.087.128-.194.128c-.236 0-1.59 1.333-1.59 1.566 0 .091-.115.249-.256.35-.14.102-.255.264-.255.36 0 .097-.172.338-.382.534-.21.197-.383.45-.383.563 0 .112-.057.204-.127.204s-.128.102-.128.227-.115.31-.255.412c-.14.1-.255.286-.255.41 0 .126-.057.228-.127.228s-.128.102-.128.227-.115.31-.255.412c-.14.101-.255.274-.255.383 0 .11-.115.282-.255.383-.14.102-.255.287-.255.412s-.057.227-.128.227c-.07 0-.127.115-.127.255s-.057.256-.127.256-.128.102-.128.227-.115.31-.255.412c-.14.1-.255.273-.255.383 0 .11-.115.282-.255.383-.14.101-.255.274-.255.383 0 .11-.115.282-.255.383-.14.102-.255.264-.255.36 0 .097-.172.338-.383.535-.21.196-.382.422-.382.501 0 .08-.257.401-.57.715-.46.461-.658.572-1.02.572h-.45V45.6c0-.351.057-.639.127-.639s.128-.172.128-.383c0-.21.057-.383.127-.383s.128-.115.128-.255c0-.141.057-.256.127-.256s.128-.115.128-.255.057-.256.127-.256.128-.102.128-.227.115-.31.255-.412c.14-.1.255-.263.255-.36 0-.096.172-.337.382-.534.21-.197.383-.392.383-.434 0-.042-.375-.077-.833-.077-.78 0-.861.028-1.275.443-.243.244-.442.531-.442.639 0 .108-.058.196-.128.196s-.127.102-.127.227-.115.31-.255.411c-.14.102-.255.264-.255.36 0 .097-.172.338-.383.535-.21.196-.382.422-.382.5 0 .216-1.369 1.543-1.591 1.543-.107 0-.194.058-.194.128s-.287.128-.638.128c-.543 0-.638-.036-.638-.245 0-.135-.071-.278-.159-.32-.127-.059-.127-.089 0-.148.088-.041.16-.3.16-.575 0-.276.057-.5.127-.5s.128-.103.128-.228.114-.31.255-.411c.14-.102.255-.274.255-.383 0-.11.114-.282.255-.384.14-.1.255-.258.255-.35 0-.215 1.602-1.821 1.818-1.821.09 0 .248-.115.35-.256.1-.14.272-.255.382-.255.109 0 .281-.115.382-.255.145-.201.33-.256.87-.256.597 0 .731.05 1.043.383.385.413.765.505.765.186 0-.255-.568-.824-.823-.824-.109 0-.197-.058-.197-.128 0-.076-.468-.128-1.148-.128-.68 0-1.147.052-1.147.128 0 .07-.172.128-.383.128-.21 0-.382.057-.382.127s-.115.128-.255.128-.255.057-.255.128c0 .07-.115.127-.255.127s-.255.058-.255.128-.088.128-.195.128c-.224 0-1.335 1.07-1.335 1.287 0 .079-.173.304-.383.501-.21.197-.383.45-.383.562 0 .113-.057.205-.127.205s-.128.115-.128.255-.057.256-.127.256-.128.114-.128.255c0 .14-.057.255-.127.255s-.128.103-.128.228-.114.31-.255.411c-.14.102-.255.26-.255.352 0 .218-.834 1.053-1.051 1.053-.092 0-.25.115-.351.256-.101.14-.273.255-.383.255-.109 0-.281.115-.382.256-.101.14-.286.255-.41.255-.126 0-.228.058-.228.128s-.172.128-.382.128c-.21 0-.383.057-.383.127s-.115.128-.255.128-.255.058-.255.128-.172.127-.382.127c-.21 0-.383.058-.383.128 0 .071-.34.128-.765.128s-.765.057-.765.128c0 .08-.723.127-1.913.127s-1.912-.048-1.912-.127c0-.07-.23-.128-.51-.128s-.51-.057-.51-.128c0-.07-.172-.127-.383-.127-.21 0-.382-.058-.382-.128s-.115-.128-.255-.128-.255-.057-.255-.128c0-.07-.088-.127-.195-.127-.253 0-1.335-1.085-1.335-1.338 0-.108-.058-.195-.128-.195s-.127-.115-.127-.256c0-.14-.058-.255-.128-.255s-.127-.23-.127-.511-.058-.511-.128-.511c-.074 0-.127-.426-.127-1.022 0-.596.053-1.022.127-1.022.07 0 .128-.287.128-.638 0-.352.057-.64.127-.64s.128-.229.128-.51.057-.511.127-.511.128-.172.128-.383c0-.21.057-.383.127-.383s.128-.115.128-.256c0-.14.057-.255.127-.255s.128-.115.128-.256c0-.14.057-.255.127-.255s.128-.115.128-.256c0-.14.057-.255.127-.255s.128-.09.128-.2c0-.111.086-.288.19-.393.17-.17.213-.17.383 0 .106.105.192.254.192.332 0 .197 1.106 1.283 1.307 1.283.092 0 .25.115.35.255.101.14.286.256.411.256s.227.057.227.127.115.128.255.128.255.058.255.128.115.128.255.128.255.057.255.127.23.128.51.128.51.057.51.128c0 .07.287.127.638.127.35 0 .637.058.637.128 0 .08.723.128 1.913.128s1.912-.048 1.912-.128c0-.07.287-.127.638-.127.35 0 .637-.058.637-.128s.172-.128.383-.128c.21 0 .382-.058.382-.128s.115-.127.255-.127.255-.058.255-.128.115-.128.255-.128.255-.057.255-.128c0-.07.102-.127.227-.127s.31-.115.41-.256c.102-.14.26-.255.351-.255.217 0 1.307-1.093 1.307-1.31 0-.092.115-.25.256-.35.14-.102.255-.287.255-.412s.057-.227.127-.227.128-.226.128-.5c0-.281.07-.53.159-.566.12-.049.112-.1-.032-.212-.144-.111-.152-.163-.032-.212.189-.077.217-.554.032-.554-.07 0-.127-.173-.127-.383 0-.211-.058-.384-.128-.384s-.127-.092-.127-.204c0-.112-.173-.365-.383-.562-.21-.197-.383-.45-.383-.562 0-.113-.102-.204-.226-.204-.125 0-.31-.115-.411-.256-.101-.14-.286-.255-.41-.255-.125 0-.228-.058-.228-.128s-.114-.128-.255-.128c-.14 0-.255-.057-.255-.128 0-.07-.23-.127-.51-.127s-.51-.058-.51-.128-.23-.128-.51-.128-.51-.057-.51-.128c0-.08-.765-.127-2.04-.127s-2.04.048-2.04.127c0 .07-.287.128-.638.128-.35 0-.637.058-.637.128s-.172.128-.383.128c-.21 0-.382.057-.382.127s-.172.128-.383.128c-.21 0-.382.058-.382.128s-.115.128-.255.128-.255.057-.255.127-.115.128-.255.128-.255.057-.255.128c0 .07-.102.127-.227.127s-.31.115-.41.256c-.102.14-.274.255-.383.255-.11 0-.282.115-.383.256-.1.14-.26.255-.355.255-.094 0-.45.288-.792.64-.342.35-.654.638-.693.638-.04 0-.072-.173-.072-.383 0-.211-.058-.384-.128-.384-.079 0-.127-.68-.127-1.788 0-.983-.043-1.786-.096-1.783-.053.002-.167.086-.255.186zm11.571 1.214c0 .07.23.128.51.128s.51.057.51.127.172.128.383.128c.21 0 .382.057.382.128 0 .07.115.127.255.127s.255.058.255.128.088.128.196.128c.254 0 1.08.827 1.08 1.081 0 .108.057.196.127.196s.128.115.128.256c0 .14.057.255.127.255.074 0 .127.426.127 1.022 0 .596-.053 1.022-.127 1.022-.07 0-.127.115-.127.255 0 .141-.058.256-.128.256s-.127.102-.127.227-.115.31-.255.412c-.14.1-.255.261-.255.356 0 .223-.315.538-.537.538-.095 0-.255.115-.356.255-.101.14-.273.256-.383.256-.109 0-.281.115-.382.255-.101.14-.286.256-.41.256-.125 0-.228.057-.228.127s-.23.128-.51.128-.51.058-.51.128-.287.128-.637.128c-.35 0-.638.057-.638.127 0 .078-.595.128-1.53.128s-1.53-.05-1.53-.128c0-.07-.287-.127-.638-.127-.35 0-.637-.058-.637-.128s-.23-.128-.51-.128-.51-.057-.51-.128c0-.07-.115-.127-.255-.127s-.255-.058-.255-.128-.115-.128-.255-.128-.255-.057-.255-.128c0-.07-.087-.127-.194-.127-.106 0-.565-.373-1.02-.828-.454-.456-.826-.915-.826-1.022 0-.107-.058-.194-.128-.194-.235 0-.135-.704.128-.894.14-.102.255-.26.255-.351 0-.204 1.084-1.31 1.284-1.31.079 0 .304-.172.5-.383.197-.21.437-.383.534-.383.096 0 .258-.115.36-.256.1-.14.285-.255.41-.255s.227-.058.227-.128.115-.128.255-.128.255-.057.255-.127.115-.128.255-.128.255-.057.255-.128c0-.07.115-.128.255-.128s.255-.057.255-.127.23-.128.51-.128.51-.057.51-.128c0-.07.23-.127.51-.127s.51-.058.51-.128c0-.078.553-.128 1.403-.128s1.402.05 1.402.128zm-22.282 8.501l-.669.69v1.078c0 .737.05 1.102.16 1.152.127.06.127.09 0 .15-.088.04-.16.184-.16.319 0 .134-.057.245-.128.245-.07 0-.127.114-.127.255 0 .14-.057.255-.127.255s-.128.103-.128.228-.115.31-.255.411c-.14.102-.255.26-.255.352 0 .233-.841 1.053-1.08 1.053-.107 0-.195.058-.195.128s-.287.128-.638.128h-.637V45.6c0-.351.057-.639.127-.639s.128-.172.128-.383c0-.21.057-.383.127-.383s.128-.115.128-.255c0-.141.057-.256.127-.256s.128-.172.128-.383c0-.21.057-.383.127-.383s.128-.115.128-.256c0-.14.057-.255.127-.255s.128-.173.128-.383c0-.211.057-.384.127-.384.075 0 .128-.425.128-1.022v-1.021H31.622v.372c0 .205.072.406.16.447.127.06.127.09 0 .15-.097.044-.16.324-.16.702 0 .345-.058.628-.128.628s-.127.102-.127.227-.115.31-.255.411c-.14.102-.255.287-.255.412s-.058.227-.128.227-.127.115-.127.256c0 .14-.058.255-.128.255s-.127.092-.127.204c0 .113-.172.366-.383.563-.21.196-.382.422-.382.502 0 .215-.854 1.03-1.08 1.03-.107 0-.195.058-.195.128s-.32.128-.71.128c-.696 0-1.076-.18-1.076-.511 0-.212.332-.511.565-.511.11 0 .2-.09.2-.202 0-.11.23-.422.51-.692.281-.27.51-.582.51-.693 0-.11.058-.201.128-.201s.128-.173.128-.384c0-.21.057-.383.127-.383s.128-.23.128-.51c0-.282.057-.512.127-.512s.128-.172.128-.383c0-.21-.058-.383-.128-.383s-.127-.146-.127-.325c0-.483-.532-.952-1.079-.952-.248 0-.451-.058-.451-.128s-.115-.128-.255-.128-.256.058-.256.128-.229.128-.51.128c-.28 0-.51.057-.51.127s-.102.128-.226.128c-.125 0-.31.115-.411.255-.101.141-.258.256-.35.256-.231 0-1.818 1.614-1.818 1.85 0 .107-.057.194-.127.194s-.128.115-.128.255-.057.256-.127.256-.128.115-.128.255-.057.256-.127.256-.128.172-.128.383c0 .21-.057.383-.127.383-.071 0-.128.34-.128.766s.057.767.128.767c.07 0 .127.089.127.197 0 .31.593.825.95.825.18 0 .325.057.325.127s.115.128.255.128.255-.057.255-.128c0-.07.23-.127.51-.127s.51-.058.51-.128.115-.128.255-.128.255-.057.255-.127.173-.128.383-.128c.21 0 .383.057.383.127s.114.128.255.128c.14 0 .255.058.255.128s.286.128.637.128c.35 0 .638-.058.638-.128s.114-.128.255-.128c.14 0 .255-.057.255-.127s.087-.128.194-.128c.22 0 1.59-1.326 1.59-1.54 0-.145.312-.504.438-.504.04 0 .073.115.073.256 0 .14-.058.255-.128.255-.072 0-.127.364-.127.836 0 .717.044.88.313 1.15.257.257.439.313 1.02.313.389 0 .707-.057.707-.128 0-.07.149-.127.331-.127.204 0 .47-.148.689-.383.196-.211.424-.384.507-.384.192 0 .513-.321.513-.514 0-.082.172-.31.383-.508.21-.196.382-.45.382-.562 0-.112.057-.204.127-.204s.128-.102.128-.227.115-.31.255-.412a.705.705 0 00.255-.51c0-.18.114-.41.255-.512.15-.108.255-.33.255-.539 0-.195.057-.355.128-.355.07 0 .127-.115.127-.255s.058-.256.128-.256.127-.172.127-.383c0-.21.057-.383.128-.383.07 0 .127-.115.127-.255 0-.141.057-.256.128-.256.189 0 .154-.375-.055-.584-.338-.339-.75-.188-1.444.527zm6.726.568c0 .281-.057.51-.127.51s-.128.088-.128.195c0 .335-1.358 1.594-1.718 1.594-.177 0-.322.058-.322.128s-.114.128-.255.128c-.14 0-.255.057-.255.127s-.23.128-.51.128-.51-.057-.51-.128c0-.07.058-.127.128-.127s.127-.092.127-.205c0-.112.172-.365.383-.562.21-.197.382-.423.382-.502 0-.2.847-1.03 1.052-1.03.092 0 .25-.115.35-.256.102-.14.287-.255.411-.255.125 0 .227-.058.227-.128s.172-.128.383-.128c.361 0 .382.028.382.511zm41.823 0c0 .281-.058.51-.128.51s-.127.116-.127.256-.058.256-.128.256-.127.115-.127.255c0 .15-.085.256-.204.256-.112 0-.365.172-.561.383-.197.21-.45.383-.561.383-.113 0-.204.058-.204.128s-.172.128-.383.128c-.21 0-.382.057-.382.127s-.23.128-.51.128-.51-.057-.51-.128c0-.07.057-.127.127-.127s.128-.091.128-.202c0-.11.23-.422.51-.692.28-.27.51-.557.51-.638 0-.197.323-.51.532-.518.093-.003.37-.23.615-.505.365-.408.534-.5.925-.505.473-.006.478-.001.478.505zm-56.671.058c.257.258.313.44.313 1.022 0 .39-.058.708-.128.708s-.127.173-.127.383c0 .211-.058.384-.128.384s-.127.115-.127.255-.058.256-.128.256-.128.102-.128.227-.114.31-.255.411c-.14.102-.255.287-.255.412s-.057.227-.127.227-.128-.09-.128-.2c0-.51-.951-.78-1.347-.384-.207.207-.254 1.35-.055 1.35.19 0 .154.375-.055.584-.1.1-.33.183-.51.183s-.328.057-.328.127-.114.128-.255.128c-.14 0-.255-.057-.255-.127s-.114-.128-.255-.128c-.233 0-.255-.086-.255-1.022 0-.596.054-1.022.128-1.022.07 0 .127-.115.127-.255 0-.141.058-.256.128-.256s.127-.115.127-.255.058-.256.128-.256.127-.102.127-.227.115-.31.255-.412c.14-.1.255-.258.255-.35 0-.232 1.355-1.566 1.591-1.566.107 0 .194-.057.194-.127s.115-.128.255-.128.256-.057.256-.128c0-.249.653-.123.962.186zm42.39 3.39c0 .071-.057.129-.128.129a.128.128 0 010-.256c.07 0 .128.057.128.128zM11.476 45.09c0 .07.172.128.382.128.21 0 .383.03.383.066 0 .146-1.92 1.978-2.074 1.978-.09 0-.248.115-.349.255-.101.14-.286.255-.41.255-.125 0-.227.058-.227.128s-.115.128-.255.128-.256.058-.256.128-.172.127-.382.127c-.21 0-.383.058-.383.128s-.286.128-.637.128c-.35 0-.638.057-.638.128 0 .07-.23.127-.51.127s-.51-.057-.51-.127-.23-.128-.51-.128-.51-.058-.51-.128-.09-.128-.2-.128c-.62 0-.792-1.189-.252-1.73.172-.172.402-.313.51-.313.109 0 .197-.058.197-.128s.115-.128.255-.128.255-.057.255-.128c0-.07.172-.127.383-.127.21 0 .382-.058.382-.128s.172-.128.383-.128c.21 0 .382-.057.382-.127 0-.071.34-.128.765-.128s.765-.057.765-.128c0-.078.596-.128 1.53-.128.936 0 1.53.05 1.53.128zm37.646 6.202c-.368.38-.67.778-.67.885 0 .107-.057.194-.127.194s-.127.115-.127.255-.058.256-.128.256-.127.115-.127.255-.058.256-.128.256-.127.172-.127.383c0 .21-.058.383-.128.383s-.127.115-.127.256c0 .14-.058.255-.128.255s-.127.173-.127.383v.384h-.765c-.425 0-.765-.057-.765-.128 0-.07-.09-.128-.2-.128-.385 0-.566-.344-.566-1.077 0-.39.058-.711.128-.711s.128-.089.128-.197c0-.29.582-.825.895-.825.306 0 .715-.349.569-.485-.053-.05-.122-.018-.154.07-.031.088-.224.16-.428.16-.205 0-.372.057-.372.127s-.09.128-.197.128c-.256 0-.824.569-.824.825 0 .108-.057.197-.127.197s-.127.26-.127.579c0 .49.067.647.442 1.022.243.243.53.443.637.443.108 0 .196.057.196.127s.23.128.51.128c.481 0 .51.021.51.383 0 .211-.058.383-.128.383s-.127.115-.127.256c0 .14-.058.255-.128.255s-.127.09-.127.201c0 .11-.082.283-.183.383-.209.21-.582.245-.582.055 0-.07-.287-.128-.638-.128-.35 0-.638.058-.638.128s-.229.128-.51.128c-.28 0-.51.057-.51.128 0 .07-.088.127-.195.127-.289 0-1.08.844-1.08 1.151 0 .146.141.407.313.58.257.257.44.313 1.02.313.39 0 .707-.057.707-.128 0-.07.115-.127.255-.127s.256-.058.256-.128.088-.128.195-.128c.254 0 1.08-.827 1.08-1.081 0-.144.136-.196.51-.196.28 0 .51.057.51.127s.23.128.51.128.51.058.51.128.172.128.382.128c.21 0 .383.057.383.127s.087.128.194.128c.107 0 .452.257.765.572.538.538.57.611.57 1.277 0 .388-.057.706-.127.706a.128.128 0 00-.127.128c0 .19.374.154.583-.055.206-.206.25-1.095.054-1.095-.07 0-.127-.115-.127-.255 0-.141-.058-.256-.128-.256s-.127-.089-.127-.197c0-.256-.568-.825-.823-.825-.109 0-.197-.057-.197-.128 0-.07-.115-.127-.255-.127s-.255-.058-.255-.128-.115-.128-.255-.128-.255-.057-.255-.128c0-.07-.115-.127-.255-.127s-.255-.058-.255-.128-.172-.128-.383-.128c-.21 0-.382-.057-.382-.127s-.115-.128-.255-.128-.255-.045-.255-.1c0-.055.114-.182.255-.283.14-.102.255-.287.255-.412s.057-.227.127-.227.128-.115.128-.255c0-.141.057-.256.127-.256s.128-.115.128-.256c0-.198.085-.255.382-.255.21 0 .383-.057.383-.128 0-.07.114-.127.255-.127.14 0 .255-.058.255-.128s.102-.128.227-.128c.124 0 .31-.115.41-.255.101-.14.259-.256.35-.256.233 0 1.308-1.1 1.308-1.338 0-.107.057-.195.127-.195s.128-.115.128-.255.057-.256.127-.256.128-.23.128-.51c0-.282.057-.511.127-.511.234 0 .132-.391-.185-.709-.24-.24-.441-.311-.86-.304-.49.009-.62.083-1.218.7zm1.88.44c0 .352-.056.639-.127.639-.07 0-.127.115-.127.255s-.057.256-.128.256c-.07 0-.127.087-.127.194 0 .237-1.331 1.594-1.563 1.594-.091 0-.249.115-.35.256-.1.14-.286.255-.41.255-.125 0-.227.058-.227.128s-.115.128-.255.128-.255-.058-.255-.128.057-.128.127-.128.128-.115.128-.255.057-.256.127-.256.128-.115.128-.255.057-.256.127-.256.128-.115.128-.255.057-.256.127-.256.128-.115.128-.255.057-.256.127-.256.128-.102.128-.227.114-.31.255-.411c.14-.102.255-.26.255-.351 0-.092.186-.363.414-.602.322-.338.521-.437.893-.444l.478-.008v.638zm-16.32 1.377c0 .125-.115.31-.255.412-.14.1-.255.286-.255.411s-.057.227-.128.227c-.07 0-.127.115-.127.256 0 .14-.058.255-.128.255s-.127.115-.127.256c0 .14-.057.255-.128.255-.07 0-.127.115-.127.256 0 .14-.057.255-.128.255-.07 0-.127.115-.127.255 0 .141-.058.256-.128.256s-.127.115-.127.255c0 .141-.057.256-.128.256-.07 0-.127.102-.127.227s-.115.31-.255.412c-.14.1-.255.265-.255.364 0 .1-.124.288-.276.42-.151.131-.238.277-.192.323.046.045.191-.041.323-.193.282-.326.4-.35.4-.078 0 .31.593.824.95.824.179 0 .325-.057.325-.128 0-.07.115-.127.255-.127s.255-.058.255-.128.09-.128.2-.128c.258 0 .565-.307.565-.566 0-.11.057-.2.128-.2.07 0 .127-.115.127-.256 0-.14.057-.255.127-.255s.128-.261.128-.58c0-.447-.072-.654-.313-.895-.317-.317-.707-.42-.707-.186 0 .07.09.128.2.128.28 0 .679.41.468.48-.087.029-.158.22-.158.425s-.057.372-.127.372-.128.115-.128.256c0 .14-.057.255-.128.255-.07 0-.127.089-.127.196 0 .224-.813 1.082-1.025 1.082-.276 0-.505-.372-.505-.822 0-.25.057-.456.127-.456s.128-.172.128-.383c0-.21.057-.383.127-.383s.128-.115.128-.255c0-.141.057-.256.127-.256s.128-.115.128-.256c0-.14.057-.255.127-.255s.128-.102.128-.227.115-.31.255-.412c.14-.1.255-.286.255-.411s.057-.227.127-.227.128-.092.128-.204c0-.113.172-.366.383-.563.21-.197.382-.45.382-.562 0-.142-.117-.204-.383-.204-.281 0-.382.06-.382.227zm15.556 1.689c0 .424.268.516.583.2.315-.315.222-.583-.2-.583-.34 0-.383.042-.383.383zm1.944.58c-.404.423-.543.825-.287.825.07 0 .128.172.128.383 0 .211.057.383.127.383s.128.23.128.511-.057.511-.128.511c-.07 0-.127.115-.127.256 0 .286-.45.365-.546.096-.031-.088-.106-.114-.166-.057-.06.056-.027.154.074.216.102.063.146.153.098.2-.047.047-.188-.017-.313-.142-.163-.164-.183-.244-.07-.282.089-.03.158-.266.158-.542s.07-.515.16-.547c.087-.031.12-.1.07-.152-.118-.127-.74.508-.74.757 0 .109-.057.197-.128.197-.07 0-.127.11-.127.245s-.072.27-.16.302c-.087.031-.113.106-.056.167.056.06.16.025.233-.079.098-.142.146-.149.194-.028.036.088.175.16.31.16.134 0 .244.057.244.127s.287.128.637.128c.604 0 .829-.145.479-.309-.128-.06-.128-.089 0-.148.087-.041.159-.185.159-.32s.057-.245.127-.245.128-.23.128-.51c0-.282-.057-.512-.127-.512s-.128-.115-.128-.255-.057-.255-.128-.255c-.195 0-.15-.89.055-1.095.1-.1.272-.183.383-.183.11 0 .2-.057.2-.128 0-.267-.463-.092-.86.325zm-15.556.25c-.087.1-.159.27-.159.378 0 .108-.057.197-.127.197s-.128.115-.128.255c0 .141-.057.256-.128.256-.07 0-.127.23-.127.51 0 .282-.057.512-.127.512s-.128.23-.128.51c0 .42.044.512.244.512.135 0 .278.072.32.16.059.127.089.127.148 0a.311.311 0 01.26-.16c.247 0 .813-.575.813-.825 0-.108-.033-.197-.073-.197-.15 0-.437.372-.437.566 0 .115-.108.2-.255.2-.14 0-.255.058-.255.128s-.057.128-.127.128-.128-.23-.128-.511.057-.511.127-.511.128-.115.128-.256c0-.14.057-.255.128-.255.07 0 .127-.115.127-.256 0-.14.057-.255.128-.255.07 0 .127-.115.127-.255 0-.141.058-.256.128-.256s.127-.115.127-.256c0-.14.057-.255.128-.255.07 0 .127-.057.127-.128 0-.193-.679-.143-.86.064zm1.913.131c-.158.169-.287.395-.287.503 0 .108-.057.197-.127.197s-.128.102-.128.227-.115.31-.255.411c-.263.19-.353.639-.127.639.07 0 .127.115.127.255s-.057.256-.127.256-.128.148-.128.328c0 .37-.264.694-.565.694-.11 0-.2.057-.2.127s-.172.128-.383.128c-.21 0-.382.058-.382.128s-.172.127-.383.127c-.21 0-.382.058-.382.128s-.145.128-.323.128c-.505 0-1.207.778-1.207 1.337 0 .366.048.451.255.451.14 0 .255.058.255.128s.23.128.51.128.51-.058.51-.128.115-.128.255-.128.255-.057.255-.127.088-.128.196-.128c.238 0 1.08-.82 1.08-1.053 0-.093.114-.251.254-.352.14-.101.255-.262.255-.357 0-.234.319-.537.565-.537.11 0 .2-.058.2-.128s.088-.128.195-.128c.253 0 1.335-1.084 1.335-1.338 0-.107-.057-.195-.127-.195s-.128.089-.128.196c0 .255-.825 1.082-1.08 1.082-.107 0-.195.057-.195.127s-.057.128-.127.128-.128-.172-.128-.383c0-.21.057-.383.128-.383.07 0 .127-.173.127-.383 0-.211.057-.384.128-.384.07 0 .127-.115.127-.255s.058-.256.128-.256.127-.172.127-.383c0-.21.058-.383.128-.383s.127-.115.127-.256c0-.14.058-.255.128-.255s.127-.057.127-.128c0-.234-.442-.116-.733.195zm16.544-.195c0 .07-.088.128-.197.128-.108 0-.338.141-.51.314-.172.172-.313.402-.313.51 0 .11-.057.198-.128.198-.07 0-.127.115-.127.255s-.057.256-.127.256-.128.115-.128.255-.057.256-.127.256-.128.094-.128.208c0 .115-.124.317-.275.448-.152.132-.238.277-.193.323.046.046.191-.04.323-.192.283-.328.4-.35.4-.076 0 .235.3.566.51.566.081 0 .368-.23.638-.51.27-.282.523-.512.563-.512.041 0 .074.148.074.329 0 .339.258.693.505.693.187 0 1.071-.89.978-.984-.04-.04-.241.107-.447.328-.205.22-.407.4-.45.4-.042 0-.076-.23-.076-.51 0-.281.058-.511.128-.511s.127-.115.127-.256c0-.14.057-.255.128-.255.07 0 .127-.115.127-.256 0-.14.058-.255.128-.255s.127-.115.127-.255c0-.148-.085-.256-.2-.256-.246 0-.565.304-.565.537 0 .095-.115.256-.255.357-.14.101-.255.26-.255.351 0 .092-.26.427-.577.744-.545.547-.588.566-.795.359-.159-.159-.175-.235-.061-.273.087-.029.158-.22.158-.425s.057-.373.127-.373.128-.087.128-.194c0-.327 1.358-1.594 1.708-1.594.171 0 .336.072.368.16.031.088.1.119.153.07.053-.05.008-.179-.1-.288-.221-.22-1.364-.28-1.364-.07zm-5.1.383c0 .141-.058.256-.128.256s-.127.172-.127.383c0 .211-.058.383-.128.383s-.127.115-.127.256c0 .14-.058.255-.128.255s-.127.288-.127.639c0 .544.036.639.244.639.135 0 .27.072.301.16.032.087.103.116.159.064.056-.052-.037-.218-.206-.368-.205-.183-.254-.293-.148-.331.088-.032.16-.225.16-.43s.057-.373.127-.373.128-.115.128-.255.057-.256.127-.256.128-.115.128-.255.057-.255.127-.255.128-.173.128-.384c0-.298-.057-.383-.255-.383-.17 0-.255.085-.255.255zm1.53.64c0 .07.057.127.127.127a.128.128 0 000-.255.128.128 0 00-.127.127zm-11.73.51c0 .07.057.128.127.128a.128.128 0 000-.256.128.128 0 00-.128.128zm17.34.117c0 .135-.071.27-.16.302-.087.031-.118.1-.069.154.12.129.484-.247.484-.5 0-.11-.057-.2-.127-.2s-.128.11-.128.244zm-11.73.973c0 .254-.826 1.082-1.08 1.082-.108 0-.196.057-.196.127s-.114.128-.255.128c-.14 0-.255.058-.255.128 0 .199-1.14.152-1.347-.055-.21-.21-.244-.584-.055-.584.07 0 .127-.115.127-.255 0-.17.085-.256.255-.256.14 0 .255-.057.255-.128 0-.07.23-.127.51-.127.281 0 .51-.058.51-.128 0-.071.34-.128.765-.128.603 0 .766.042.766.196zm-8.416 1.659c0 .162-1.673 1.722-1.846 1.722-.107 0-.194.057-.194.128 0 .07-.148.127-.328.127-.339 0-.692-.258-.692-.506 0-.212.856-1.026 1.08-1.026.107 0 .195-.058.195-.128s.172-.128.383-.128c.21 0 .382-.057.382-.128 0-.07.23-.127.51-.127s.51.03.51.066z" fill="#E94E6B"/></svg>