<svg width="23" height="23" fill="none" xmlns="http://www.w3.org/2000/svg"><path d="M22.408 13.793a.467.467 0 000-.063.472.472 0 00-.044-.077l-.043-.058-8.558-8.177a.481.481 0 00-.255-.13 17.103 17.103 0 00-2.212-.164 2.324 2.324 0 00-.962-.442c-.082-.885.014-2.887 1.664-3.772a.487.487 0 10-.481-.846c-2.14 1.159-2.28 3.574-2.232 4.613-.43.096-.823.311-1.135.62-3.517.53-6.115 2.098-7.524 4.551v.054a.48.48 0 00-.039.177v8.592a.481.481 0 00.395.48L21.845 23h.087a.481.481 0 00.48-.481v-8.62-.034a.483.483 0 00-.004-.072zM9.843 5.562a1.385 1.385 0 11-1.38 1.39v-.005c0-.763.617-1.382 1.38-1.385zm-2.266.808c-.05.187-.075.38-.077.573a2.347 2.347 0 104.498-.871c.543.029.962.077 1.154.101l7.303 6.98-18.56-3.425C3.086 8.015 5 6.895 7.578 6.37zM1.564 18.266v-2.308l19.901 3.583.005 2.4-19.906-3.674zm0-3.285v-1.443l19.901 3.584.005 1.452-19.906-3.593zm0-2.41v-1.924l14.763 2.727 5.133.962.01 1.833-19.906-3.598z" fill="#E94E6B"/></svg>